<svg xmlns="http://www.w3.org/2000/svg" version="1.1" xmlns:xlink="http://www.w3.org/1999/xlink" xmlns:svgjs="http://svgjs.dev/svgjs" width="1440" height="560" preserveAspectRatio="none" viewBox="0 0 1440 560"><g mask="url(&quot;#SvgjsMask1223&quot;)" fill="none"><rect width="1440" height="560" x="0" y="0" fill="rgba(239, 224, 212, 1)"></rect><path d="M0,621.272C115.845,639.906,237.409,583.718,324.855,505.484C407.225,431.792,422.796,314.123,459.745,209.959C493.313,115.324,527.936,23.974,531.252,-76.383C535.113,-193.252,539.765,-315.536,480.436,-416.3C415.991,-525.753,316.727,-630.394,191.741,-653.01C68.399,-675.329,-46.13,-591.705,-156.055,-531.473C-246.483,-481.924,-309.745,-403.524,-387.396,-335.681C-479.975,-254.795,-616.554,-210.687,-656.349,-94.369C-697.238,25.145,-672.731,172.082,-595.245,271.839C-520.275,368.356,-369.38,348.898,-263.985,410.769C-164.92,468.924,-113.415,603.029,0,621.272" fill="#e9d4c4"></path><path d="M1440 1163.629C1551.321 1169.87 1622.122 1043.383 1698.374 962.038 1758.997 897.366 1803.3310000000001 823.264 1836.216 740.946 1867.716 662.094 1878.614 580.795 1884.5140000000001 496.089 1891.9189999999999 389.778 1928.176 275.401 1875.0810000000001 183 1820.001 87.144 1712.455 19.385999999999967 1602.747 5.732999999999947 1497.098-7.413999999999987 1409.386 78.19099999999997 1308.604 112.505 1213.357 144.935 1107.797 142.32100000000003 1026.694 201.868 933.722 270.129 849.866 359.398 820.441 470.921 789.605 587.792 786.065 730.148 862.63 823.6759999999999 939.049 917.0260000000001 1095.637 872.867 1199.595 934.077 1297.047 991.456 1327.087 1157.299 1440 1163.629" fill="#f5ece4"></path></g><defs><mask id="SvgjsMask1223"><rect width="1440" height="560" fill="#ffffff"></rect></mask></defs></svg>