<?xml version="1.0" encoding="utf-8"?>
<!-- Generator: Adobe Illustrator 27.5.0, SVG Export Plug-In . SVG Version: 6.00 Build 0)  -->
<svg version="1.1" xmlns="http://www.w3.org/2000/svg" xmlns:xlink="http://www.w3.org/1999/xlink" x="0px" y="0px"
	 viewBox="0 0 750 500" style="enable-background:new 0 0 750 500;" xml:space="preserve">
<g id="BACKGROUNDD">
	<rect style="fill:#F4E9E1;" width="750" height="500"/>
</g>
<g id="OBJECTS">
	<g>
		<g>
			<g>
				<path style="fill:#F4DECE;" d="M153.24,434.019c9.789-13.984,0-39.155,0-39.155l-9.09,19.621
					c0.699-9.745-7.691-34.304-7.691-34.304c-4.894,8.39-8.39,39.155-8.39,39.155c-3.496-21.675-18.179-53.75-18.179-53.75
					c-4.195,14.771,0,50.954,0,50.954l-19.228-24.472c-0.35,19.577,12.236,55.586,12.236,55.586l-24.472-15.732
					c6.992,19.577,17.48,31.464,17.48,31.464h60.83c13.984-12.585,10.488-44.049,10.488-44.049
					C157.435,434.718,153.24,434.019,153.24,434.019z"/>
				<path style="fill:#F4DECE;" d="M619.184,446.674c0,0,13.369-38.25,12.997-59.046l-20.425,25.995c0,0,4.456-38.435,0-54.125
					c0,0-15.597,34.072-19.311,57.096c0,0-3.714-32.679-8.913-41.592c0,0-8.913,26.088-8.17,36.44l-9.655-20.843
					c0,0-10.398,26.738,0,41.592c0,0-4.456,0.743-14.854-15.597c0,0-3.714,33.422,11.141,46.791h64.616
					c0,0,11.141-12.626,18.568-33.422L619.184,446.674z"/>
			</g>
			<g>
				<rect x="488.333" y="159.623" style="fill:#FFF9EF;" width="95.042" height="100.566"/>
				<g>
					<path style="fill:#F4E9E1;" d="M554.42,170.104h16.081c0,0,0.966,21.253,4.506,24.762h-16.735
						C558.272,194.866,553.465,182.383,554.42,170.104z"/>
					<path style="fill:#F4E9E1;" d="M554.42,199.51h16.081c0,0,0.966,21.253,4.506,24.762h-16.735
						C558.272,224.272,553.465,211.789,554.42,199.51z"/>
				</g>
			</g>
			<g>
				<path style="fill:#F4E0D0;" d="M464.999,263.916h-308.26c-4.862,0-8.804-3.942-8.804-8.804V75.136
					c0-4.862,3.941-8.804,8.804-8.804h308.26c4.862,0,8.804,3.942,8.804,8.804v179.976
					C473.803,259.974,469.862,263.916,464.999,263.916z"/>
				<polygon style="fill:#EACAB5;" points="147.936,86.015 473.803,92.492 473.803,74.832 				"/>
				<g>
					<g>
						<rect x="361.512" y="171.525" style="fill:#FFF9EF;" width="12.917" height="87.292"/>
						<rect x="383.344" y="158.008" style="fill:#FFF9EF;" width="12.917" height="100.809"/>
						<rect x="409.302" y="131.939" style="fill:#FFF9EF;" width="12.917" height="126.877"/>
						<rect x="439.735" y="106.01" style="fill:#FFF9EF;" width="12.917" height="152.806"/>
					</g>
					<circle style="fill:#FFF9EF;" cx="286.919" cy="133.919" r="37.606"/>
					<path style="fill:#F4EADC;" d="M324.525,133.919c0-15.453-9.324-28.723-22.65-34.507l-14.956,34.507l18.411,32.788
						C316.784,160.262,324.525,147.997,324.525,133.919z"/>
					<path style="fill:#FFF9EF;" d="M424.435,111.279c-0.008-0.035-0.012-0.069-0.023-0.102c-0.005-0.015-0.005-0.031-0.01-0.047
						c-0.034-0.087-0.081-0.165-0.136-0.236c-0.003-0.005-0.005-0.01-0.008-0.015c-0.07-0.088-0.158-0.158-0.253-0.217
						c-0.028-0.017-0.058-0.028-0.088-0.043c-0.077-0.037-0.157-0.063-0.243-0.079c-0.021-0.004-0.038-0.017-0.06-0.02
						c-0.015-0.002-0.029,0.005-0.044,0.004c-0.023-0.002-0.044-0.01-0.067-0.01h-10.699c-0.534,0-0.965,0.432-0.965,0.965
						c0,0.533,0.432,0.965,0.965,0.965h8.217l-28.594,26.214c-0.727-0.568-1.63-0.92-2.624-0.92c-0.889,0-1.715,0.271-2.4,0.735
						l-11.904-12.428c0.153-0.44,0.253-0.906,0.253-1.399c0-2.368-1.919-4.287-4.287-4.287s-4.287,1.919-4.287,4.287
						c0,1.878,1.215,3.456,2.895,4.036l-4.772,19.083c-2.13,0.25-3.788,2.04-3.788,4.237c0,0.336,0.048,0.659,0.121,0.973
						L320.55,180.07c-0.446,0.294-0.568,0.892-0.275,1.337c0.186,0.282,0.494,0.434,0.807,0.434c0.182,0,0.367-0.051,0.53-0.159
						l40.892-26.967c0.786,0.954,1.962,1.575,3.295,1.575c2.368,0,4.287-1.919,4.287-4.287c0-1.861-1.193-3.429-2.85-4.022
						l4.777-19.102c0.935-0.121,1.777-0.528,2.422-1.151l11.662,12.176c-0.361,0.628-0.583,1.346-0.583,2.122
						c0,2.368,1.919,4.287,4.287,4.287c2.368,0,4.287-1.919,4.287-4.287c0-0.672-0.168-1.299-0.443-1.865l28.599-26.219
						l-0.986,8.502c-0.061,0.53,0.318,1.009,0.848,1.07c0.038,0.005,0.076,0.007,0.112,0.007c0.484,0,0.901-0.362,0.958-0.854
						l1.284-11.076c0.002-0.021-0.006-0.04-0.005-0.062C424.461,111.446,424.453,111.363,424.435,111.279z"/>
				</g>
				<path style="fill:#C6A58F;" d="M464.999,86.015h-308.26c-4.862,0-8.804-3.942-8.804-8.804v-2.075
					c0-4.862,3.941-8.804,8.804-8.804h308.26c4.862,0,8.804,3.942,8.804,8.804v2.075C473.803,82.073,469.862,86.015,464.999,86.015z
					"/>
				<path style="fill:#FFCF9F;" d="M371.166,74.832h-93.282c-3.744,0-6.779-3.035-6.779-6.779l0,0c0-3.744,3.035-6.779,6.779-6.779
					h93.282c3.744,0,6.779,3.035,6.779,6.779l0,0C377.945,71.797,374.91,74.832,371.166,74.832z"/>
			</g>
			<g>
				<g>
					<path style="fill:#FFF9EF;" d="M488.333,112.455c0-1.534,0-3.069,0-4.603c0.063-0.552,0.127-1.104,0.188-1.656
						c0.94-8.452,4.168-15.909,9.865-22.23c6.049-6.712,13.543-10.902,22.46-12.481c1.478-0.261,2.976-0.41,4.464-0.611
						c1.534,0,3.069,0,4.603,0c0.197,0.043,0.393,0.112,0.592,0.126c6.144,0.434,11.892,2.19,17.137,5.405
						c10.175,6.237,16.44,15.227,18.637,26.99c0.275,1.472,0.411,2.97,0.612,4.457c0,1.534,0,3.069,0,4.603
						c-0.063,0.552-0.127,1.104-0.188,1.656c-0.94,8.452-4.168,15.909-9.865,22.23c-6.049,6.712-13.543,10.902-22.46,12.481
						c-1.478,0.262-2.976,0.41-4.464,0.611c-1.534,0-3.069,0-4.603,0c-0.197-0.043-0.393-0.112-0.592-0.126
						c-6.144-0.434-11.893-2.19-17.137-5.405c-10.175-6.237-16.44-15.227-18.637-26.99
						C488.67,115.44,488.533,113.941,488.333,112.455z M560.791,110.164c0.014-18.294-14.825-33.15-33.149-33.189
						c-18.271-0.039-33.144,14.799-33.208,33.13c-0.064,18.286,14.871,33.239,33.187,33.228
						C545.932,143.321,560.777,128.476,560.791,110.164z"/>
					<path style="fill:#FFF9EF;" d="M524.558,101.259c0.001-2.991-0.025-5.983,0.009-8.974c0.026-2.305,2.122-3.769,4.167-2.964
						c1.242,0.489,1.93,1.609,1.931,3.19c0.005,5.062,0.03,10.125-0.024,15.187c-0.009,0.905,0.287,1.418,0.992,1.935
						c3.277,2.402,6.51,4.865,9.764,7.299c1.131,0.846,1.667,1.94,1.315,3.338c-0.527,2.09-2.896,2.955-4.697,1.712
						c-1.135-0.783-2.217-1.644-3.321-2.471c-2.802-2.1-5.582-4.23-8.413-6.289c-1.207-0.878-1.758-1.963-1.735-3.448
						C524.589,106.935,524.558,104.097,524.558,101.259z"/>
				</g>
			</g>
			<path style="fill:#EACFB9;" d="M694.074,463.641c0,2.624-140.917,4.751-314.748,4.751s-314.748-2.127-314.748-4.751
				c0-2.624,140.917-4.751,314.748-4.751S694.074,461.017,694.074,463.641z"/>
			<g>
				
					<ellipse transform="matrix(0.9314 -0.3641 0.3641 0.9314 -95.5718 58.1928)" style="fill:none;stroke:#FFF9EF;stroke-width:2;stroke-linecap:round;stroke-linejoin:round;stroke-miterlimit:10;" cx="106.547" cy="282.561" rx="10.644" ry="10.644"/>
				
					<circle style="fill:none;stroke:#FFF9EF;stroke-width:2;stroke-linecap:round;stroke-linejoin:round;stroke-miterlimit:10;" cx="633.368" cy="190.572" r="7.601"/>
				
					<circle style="fill:none;stroke:#FFF9EF;stroke-width:2;stroke-linecap:round;stroke-linejoin:round;stroke-miterlimit:10;" cx="144.73" cy="46.93" r="4.624"/>
				
					<ellipse transform="matrix(0.9075 -0.4201 0.4201 0.9075 -66.7213 289.1979)" style="fill:none;stroke:#FFF9EF;stroke-width:2;stroke-linecap:round;stroke-linejoin:round;stroke-miterlimit:10;" cx="623.255" cy="296.088" rx="8.167" ry="8.167"/>
			</g>
		</g>
		<g>
			<g>
				<g>
					<path style="fill:#FC8D60;" d="M186.565,447.234l5.838-40.75l-19.253-1.521l-2.433,42.271
						C170.717,447.234,177.182,454.258,186.565,447.234z"/>
					<g>
						<path style="fill:#7A5231;" d="M145.724,462.895h45.1c0,0,0.581-13.533-4.258-15.661c-4.839-2.129-11.965,2.984-14.384-1.121
							c-2.42-4.105-10.676,5.356-17.115,7.344C148.627,455.445,145.724,453.772,145.724,462.895z"/>
						<g>
							<path style="fill:#2D141E;" d="M166.509,452.494c-3.34-4.073-5.781-2.545-5.884-2.48c-0.208,0.137-0.266,0.413-0.133,0.625
								c0.134,0.211,0.414,0.274,0.626,0.143c0.077-0.046,1.899-1.106,4.684,2.292c0.09,0.11,0.221,0.167,0.353,0.167
								c0.102,0,0.204-0.034,0.289-0.103C166.64,452.977,166.669,452.69,166.509,452.494z"/>
							<path style="fill:#2D141E;" d="M157.701,451.832c-0.249,0.038-0.419,0.271-0.381,0.519c0.038,0.248,0.267,0.421,0.52,0.382
								c0.156-0.023,3.851-0.539,5.262,2.521c0.077,0.168,0.242,0.266,0.414,0.266c0.064,0,0.129-0.013,0.191-0.042
								c0.229-0.105,0.329-0.377,0.224-0.605C162.229,451.183,157.749,451.825,157.701,451.832z"/>
						</g>
					</g>
					<polygon style="fill:#CC665E;" points="171.137,439.136 186.953,444.529 187.374,440.669 					"/>
				</g>
				<g>
					<path style="fill:#FC8D60;" d="M225.093,447.234l-5.838-40.75l19.253-1.521l2.433,42.271
						C240.941,447.234,234.477,454.258,225.093,447.234z"/>
					<g>
						<path style="fill:#7A5231;" d="M265.935,462.895h-45.1c0,0-0.581-13.533,4.258-15.661c4.839-2.129,11.965,2.984,14.384-1.121
							c2.42-4.105,10.676,5.356,17.115,7.344C263.031,455.445,265.935,453.772,265.935,462.895z"/>
						<g>
							<path style="fill:#2D141E;" d="M245.149,452.494c3.34-4.073,5.781-2.545,5.884-2.48c0.208,0.137,0.266,0.413,0.133,0.625
								c-0.134,0.211-0.414,0.274-0.626,0.143c-0.077-0.046-1.899-1.106-4.684,2.292c-0.09,0.11-0.221,0.167-0.353,0.167
								c-0.102,0-0.204-0.034-0.29-0.103C245.018,452.977,244.99,452.69,245.149,452.494z"/>
							<path style="fill:#2D141E;" d="M253.957,451.832c0.249,0.038,0.419,0.271,0.381,0.519c-0.038,0.248-0.267,0.421-0.519,0.382
								c-0.156-0.023-3.851-0.539-5.262,2.521c-0.077,0.168-0.242,0.266-0.414,0.266c-0.064,0-0.129-0.013-0.191-0.042
								c-0.229-0.105-0.329-0.377-0.224-0.605C249.429,451.183,253.91,451.825,253.957,451.832z"/>
						</g>
					</g>
					<polygon style="fill:#CC665E;" points="224.557,443.492 240.46,438.877 223.933,439.136 					"/>
				</g>
			</g>
			<g>
				<path style="fill:#213B75;" d="M175.127,281.117l-11.663,148.895c-0.362,4.626,3.053,8.688,7.674,9.125l16.237,1.533
					c4.671,0.441,8.815-2.986,9.259-7.656L206.83,325.82l11.512,107.147c0.504,4.686,4.725,8.068,9.408,7.537l10.99-1.247
					c4.488-0.509,7.794-4.44,7.526-8.949l-8.873-149.192H175.127z"/>
				<path style="fill:#132442;" d="M205.078,287.009v38.811c0,0.276,0.224,0.5,0.5,0.5c0.276,0,0.5-0.224,0.5-0.5v-13.275
					l4.009-3.852c0.092-0.088,0.146-0.208,0.153-0.334l1.107-21.35h26.395l-0.462-5.892h-62.265l-0.35,5.892H205.078z
					 M206.078,287.009h4.268l-1.094,21.1l-3.174,3.05V287.009z"/>
			</g>
			<g>
				<g>
					<path style="fill:#CC665E;" d="M211.783,170.089c0,0-1.034,8.889,4.269,14.134s4.429,32.642-5.721,28.13
						c-10.15-4.512-21.597-35.998-21.597-35.998s6.164-7.781,6.506-14.382C195.583,155.372,212.361,164.166,211.783,170.089z"/>
					<path style="fill:#AA4E49;" d="M194.21,166.627c0.553-1.541,0.951-3.128,1.03-4.654c0.342-6.601,17.12,2.193,16.543,8.117
						C211.783,170.09,204.422,172.634,194.21,166.627z"/>
				</g>
				<path style="fill:#CC665E;" d="M184.861,156.859c-3.283-3.954-4.208-8.601-2.067-10.379c2.141-1.778,6.539-0.013,9.821,3.941
					c0.025,0.031,0.047,0.062,0.072,0.092c3.117,3.806,4.05,8.217,2.183,10.098c-0.063,0.063-0.12,0.132-0.189,0.189
					C192.541,162.578,188.144,160.813,184.861,156.859z"/>
				<path style="fill:#FC8D60;" d="M221.763,142.02c0,0-0.448,6.099,0.877,10.794c1.326,4.695-2.688,13.132-6.878,16.123
					c-4.19,2.992-14.334-0.373-18.326-3.368c-3.992-2.994-7.791-11.635-8.593-15.682c-0.802-4.047,2.779-21.194,14.692-21.125
					C215.447,128.833,222.182,131.667,221.763,142.02z"/>
				<path style="fill:#272B34;" d="M223.488,122.768c1.038-1.316,1.662-2.974,1.662-4.781c0-4.272-3.463-7.735-7.735-7.735
					c-2.866,0-5.361,1.562-6.698,3.878c-0.226-4.069-3.587-7.301-7.713-7.301c-2.216,0-4.208,0.937-5.618,2.429
					c-0.673-0.191-1.382-0.3-2.117-0.3c-3.059,0-5.695,1.78-6.95,4.357c-4.077,0.218-7.318,3.583-7.318,7.714
					c0,0.356,0.032,0.703,0.079,1.046c-2.307,1.339-3.863,3.829-3.863,6.689c0,2.188,0.912,4.16,2.373,5.567
					c-1.461,1.407-2.373,3.379-2.373,5.567c0,4.272,3.463,7.735,7.735,7.735c0.536,0,1.059-0.056,1.564-0.161
					c1.221,3.89,4.254,12.967,5.093,9.972c0.756-2.696,0.432-8.733,0.186-11.967c3.643-0.275,6.575-3.07,7.067-6.649
					c0.504,0.103,1.026,0.158,1.561,0.158c1.75,0,3.358-0.588,4.654-1.567c1.412,1.522,3.424,2.48,5.664,2.48
					c2.566,0,4.833-1.254,6.24-3.178c1.141,0.663,2.463,1.049,3.877,1.049c4.272,0,7.735-3.463,7.735-7.735
					C228.591,126.687,226.462,123.846,223.488,122.768z"/>
			</g>
			<g>
				<path style="fill:#FC8D60;" d="M282.262,215.284c0,0-4.496-3.23-3.008-12.962c1.488-9.731,2.34-5.304,2.908-2.353
					c0.568,2.951,2.392,6.353,5.1,1.626c2.708-4.726,10.662-18.046,9.24-12.233c-1.422,5.813-4.335,9.826-4.335,9.826
					s10.611-15.576,9.266-9.936c-1.345,5.64-6.289,11.665-6.289,11.665s8.621-11.452,8.138-8.237
					c-0.483,3.215-4.848,11.142-4.848,11.142s6.468-6.184,4.887-1.895C301.74,206.217,291.372,222.419,282.262,215.284z"/>
				<path style="fill:#FFF9EF;" d="M192.686,170.104c0,0-17.788,7.238-22.349,10.431s-20.983,59.984-20.983,63.406
					c0,3.421,12.772,23.492,16.878,22.352c4.105-1.14,8.895-1.646,8.895-1.646l-1.964,14.183c-0.167,1.209,0.772,2.288,1.993,2.288
					h63.269c1.168,0,2.09-0.991,2.007-2.155l-2.583-36.245c0,0,15.965,21.75,21.211,19.47c5.246-2.281,33.299-42.651,33.299-42.651
					l-16.422-13l-19.843,22.123c0,0-18.702-46.072-21.439-48.581c-2.737-2.509-22.95-8.553-22.95-8.553s-1.113,17.449-1.683,18.703
					C209.453,191.482,192.686,170.104,192.686,170.104z"/>
				<polygon style="fill:#413F72;" points="210.023,190.228 206.83,195.512 209.3,198.173 205.817,260.058 214.09,271.918 
					219.255,259.754 211.798,198.173 213.37,195.879 				"/>
				<g>
					<polygon style="fill:#DBC8ED;" points="192.686,170.104 195.829,189.202 209.68,190.174 197.631,187.529 					"/>
					<polygon style="fill:#DBC8ED;" points="216.029,185.248 210.023,190.228 218.158,185.248 211.706,171.525 					"/>
					<polygon style="fill:#DBC8ED;" points="201.888,240.28 175.127,264.646 203.995,241.964 203.004,237.706 208.882,236.717 
						209.68,234.969 200.758,236.421 					"/>
					<polygon style="fill:#DBC8ED;" points="172.998,232.84 174.063,199.997 169.957,234.969 160.986,241.051 195.829,223.025 					
						"/>
					<polygon style="fill:#DBC8ED;" points="233.515,198.173 237.848,242.717 240.246,245.852 					"/>
				</g>
				<path style="fill:#FC8D60;" d="M212.133,223.471c1.135-0.392,5.127-1.913,9.056-5.113c4.641-3.779-9.738,2.047-14.749,4.183
					c-5.011,2.136-4.414-1.677-3.087-4.373c1.327-2.697,3.318-6.741-3.739,0.123c-1.741,1.693-2.949,3.289-3.787,4.735l4.929,13.396
					c6.536,1.348,15.68-2.255,18.291-3.929c3.848-2.468-5.041-1.436-5.041-1.436s8.263-3.69,10.588-5.963
					c1.862-1.821-6.611,0.341-10.055,1.273c2.399-0.712,7.358-2.412,10.648-5.123C229.308,217.85,214.51,222.682,212.133,223.471z"
					/>
			</g>
		</g>
		<path style="fill:#724A2D;" d="M496.101,456.362l-29.013-125.723c-0.559-2.42-2.714-4.134-5.197-4.134
			c-1.151,0-2.197,0.365-3.055,0.969c-0.859-0.604-1.905-0.969-3.055-0.969h0c-2.484,0-4.639,1.714-5.197,4.134L421.57,456.362
			c-0.771,3.342,1.767,6.533,5.197,6.533h0c2.484,0,4.639-1.714,5.197-4.134l26.871-116.442l26.871,116.442
			c0.559,2.42,2.713,4.134,5.197,4.134C494.334,462.895,496.872,459.704,496.101,456.362z"/>
		<g>
			<g>
				<path style="fill:#C68F61;" d="M540.61,462.895h0.282c1.979,0,3.128-1.604,2.567-3.582l-24.328-85.803
					c-0.561-1.979-2.62-3.582-4.598-3.582h-0.282c-1.979,0-3.128,1.604-2.567,3.582l24.328,85.803
					C536.573,461.291,538.632,462.895,540.61,462.895z"/>
				<g>
					<path style="fill:#E5A56C;" d="M536.323,369.927h-0.282c-1.979,0-4.037,1.604-4.598,3.582l-24.328,85.803
						c-0.561,1.978,0.588,3.582,2.567,3.582h0.283c1.979,0,4.037-1.604,4.598-3.582l24.328-85.803
						C539.45,371.531,538.301,369.927,536.323,369.927z"/>
					<path style="fill:#E5A56C;" d="M491.201,369.927h-0.283c-1.979,0-4.037,1.604-4.598,3.582l-24.328,85.803
						c-0.561,1.978,0.588,3.582,2.567,3.582h0.282c1.978,0,4.037-1.604,4.598-3.582l24.328-85.803
						C494.328,371.531,493.179,369.927,491.201,369.927z"/>
					<path style="fill:#E5A56C;" d="M588.581,459.313l-24.328-85.803c-0.561-1.979-2.62-3.582-4.598-3.582h-0.283
						c-1.979,0-3.128,1.604-2.567,3.582l24.328,85.803c0.561,1.978,2.62,3.582,4.598,3.582h0.282
						C587.993,462.895,589.142,461.291,588.581,459.313z"/>
				</g>
			</g>
			<g>
				<g>
					<path style="fill:#FFC8AF;" d="M493.254,447.234l-5.966-28.7h-18.815l9.176,26.624
						C477.649,445.158,481.543,455.407,493.254,447.234z"/>
					<path style="fill:#634128;" d="M453.565,462.895h45.1c0,0,0.581-13.533-4.258-15.661c-4.839-2.129-11.965,2.984-14.384-1.121
						s-10.676,5.356-17.115,7.344C456.469,455.445,453.565,453.772,453.565,462.895z"/>
					<polygon style="fill:#EA7168;" points="475.797,439.785 491.189,437.298 490.391,433.458 					"/>
					<g>
						<path style="fill:#2D141E;" d="M471.706,453.742c-2.56-3.889-5.815-2.128-5.847-2.112c-0.22,0.123-0.298,0.401-0.176,0.621
							c0.123,0.221,0.402,0.297,0.621,0.176c0.103-0.059,2.54-1.373,4.639,1.818c0.088,0.133,0.233,0.205,0.381,0.205
							c0.086,0,0.174-0.024,0.251-0.075C471.786,454.235,471.844,453.953,471.706,453.742z"/>
						<path style="fill:#2D141E;" d="M463.696,452.71c-0.251,0.021-0.437,0.242-0.415,0.493c0.021,0.251,0.233,0.436,0.494,0.416
							c0.039-0.004,4.102-0.31,5.465,2.554c0.078,0.164,0.242,0.26,0.412,0.26c0.066,0,0.133-0.014,0.196-0.044
							c0.227-0.108,0.324-0.38,0.216-0.608C468.426,452.342,463.891,452.69,463.696,452.71z"/>
					</g>
				</g>
				<g>
					<path style="fill:#FFC8AF;" d="M517.278,447.234l-5.966-28.7h-18.815l9.176,26.624
						C501.673,445.158,505.567,455.407,517.278,447.234z"/>
					<path style="fill:#7A5231;" d="M477.88,462.895h45.1c0,0,0.581-13.533-4.258-15.661c-4.839-2.129-11.965,2.984-14.384-1.121
						c-2.42-4.105-10.676,5.356-17.115,7.344C480.783,455.445,477.88,453.772,477.88,462.895z"/>
					<polygon style="fill:#EA7168;" points="498.312,435.406 514.82,435.406 514.112,432.001 					"/>
					<g>
						<path style="fill:#2D141E;" d="M498.665,452.494c-3.34-4.073-5.781-2.545-5.884-2.48c-0.208,0.137-0.266,0.413-0.133,0.625
							c0.134,0.211,0.414,0.274,0.626,0.143c0.078-0.046,1.9-1.106,4.685,2.292c0.09,0.11,0.221,0.167,0.353,0.167
							c0.102,0,0.204-0.034,0.289-0.103C498.796,452.977,498.825,452.69,498.665,452.494z"/>
						<path style="fill:#2D141E;" d="M489.858,451.832c-0.248,0.038-0.419,0.271-0.381,0.519c0.038,0.248,0.267,0.421,0.519,0.382
							c0.156-0.023,3.851-0.539,5.262,2.521c0.077,0.168,0.242,0.266,0.414,0.266c0.064,0,0.129-0.013,0.191-0.042
							c0.229-0.105,0.329-0.377,0.224-0.605C494.385,451.183,489.905,451.825,489.858,451.832z"/>
					</g>
				</g>
			</g>
			<path style="fill:#E5A56C;" d="M586.274,276.784c0,0-30.456-15.489-54.381,8.449c-23.924,23.938-29.504,89.685-19.415,94.672
				c0,0,58.745-10.218,65.131-22.382C583.995,345.359,592.506,290.316,586.274,276.784z"/>
			<g>
				<g>
					<path style="fill:#FF9A8F;" d="M518.833,236.192c0,0,1.034,8.889-4.269,14.134c-5.303,5.246-4.429,32.642,5.721,28.13
						c10.149-4.512,21.597-35.998,21.597-35.998s-6.164-7.781-6.506-14.382C535.034,221.475,518.256,230.269,518.833,236.192z"/>
					<path style="fill:#EA7168;" d="M536.406,232.73c-0.553-1.541-0.951-3.128-1.03-4.654c-0.342-6.601-17.12,2.193-16.543,8.117
						C518.833,236.192,526.195,238.736,536.406,232.73z"/>
				</g>
				<path style="fill:#FF9A8F;" d="M545.756,222.962c3.283-3.954,4.208-8.601,2.067-10.379c-2.141-1.778-6.539-0.014-9.821,3.941
					c-0.025,0.03-0.047,0.062-0.072,0.092c-3.117,3.806-4.05,8.217-2.183,10.098c0.063,0.063,0.12,0.132,0.189,0.189
					C538.075,228.68,542.473,226.916,545.756,222.962z"/>
				<path style="fill:#FFC8AF;" d="M508.854,208.123c0,0,0.448,6.099-0.877,10.794c-1.326,4.695,2.688,13.132,6.878,16.123
					c4.19,2.992,14.334-0.373,18.326-3.368c3.992-2.994,7.791-11.635,8.594-15.682c0.802-4.047-2.779-21.194-14.692-21.125
					C515.169,194.935,508.434,197.77,508.854,208.123z"/>
				<path style="fill:#733F59;" d="M511.183,202.354c0,0,6.365,3.649,8.266,1.064c0,0,12.848,4.195,11.328-0.069
					c0,0,5.626,7.748,6.766,4.175c0,0,0.901,5.042,2.281,3.573c0,0-2.674,14.706-1.489,13.777
					c1.185-0.929,6.246-12.855,6.246-12.855s2.564-0.266,3.242,0.563c0,0,1.923-10.039-1.271-15.399s-18.64-17.334-19.242-13
					c0,0-16.909-4.219-21.014,3.079c-4.105,7.299-3.155,22.913,2.558,20.86C508.854,208.123,508.463,203.399,511.183,202.354z"/>
			</g>
			<g>
				<g>
					<path style="fill:#5A3F75;" d="M566.509,334.259c0,0,1.883,25.545-17.533,29.65c-19.416,4.105-37.614,8.439-37.614,8.439
						l8.619,58.388l-26.457,5.702l-1.064-3.877L472.997,441c0,0-22.808-69.792-23.72-76.178c-0.912-6.386-1.597-11.632,11.86-18.93
						c13.457-7.299,36.264-17.106,36.264-17.106L566.509,334.259z"/>
					<path style="fill:#442142;" d="M473.605,358.74c2.865-4.167,30.197-19.149,37.989-23.367l54.964,2.307l-0.05-3.421h-81.441
						l25.721,1.08c-9.2,3.526-37.578,14.959-41.138,23.096c0,0,6.994,41.814,22.808,74.125
						C492.459,432.561,470.26,363.605,473.605,358.74z"/>
				</g>
				<g>
					<g>
						<g>
							<path style="fill:#FFF9EF;" d="M518.635,241.627c0,0,2.581,5.037,14.394-1.514l5.369,4.055l-22.18,41.064l-4.676-39.595
								L518.635,241.627z"/>
							<polygon style="fill:#26111C;" points="521.589,243.596 523.002,249.932 521.159,251.182 522.638,262.263 517.521,276.784 
								514.398,264.646 519.335,251.163 518.758,249.681 							"/>
							<g>
								<polygon style="fill:#D8C4F2;" points="524.8,250.555 521.534,243.35 523.687,253.006 531.893,244.054 								"/>
								<path style="fill:#D8C4F2;" d="M517.521,252.341l4.068-8.745c0,0-5.542,8.156-5.656,8.327
									C515.818,252.094,517.521,252.341,517.521,252.341z"/>
							</g>
						</g>
						<path style="fill:#5A3F75;" d="M537.93,236.206c0,0,13.297,2.944,16.49,7.506s23.72,60.897,15.737,65.458l-1.369,25.089
							h-71.388v-25.089h-36.72l3.877-9.275c0,0,17.106-5.094,21.439-6.69c0,0,10.644-45.007,13.229-46.984
							c2.585-1.977,19.682-7.677,19.682-7.677s-3.136,33.678-1.387,38.239C517.521,276.784,525.622,241.853,537.93,236.206z"/>
						<g>
							<polygon style="fill:#442142;" points="533.608,246.506 540.052,245.638 537.93,236.206 538.398,244.168 531.328,245.309 
								535.547,251.41 517.521,276.784 538.398,252.493 							"/>
							<polygon style="fill:#442142;" points="510.23,249.699 517.521,276.784 511.998,249.984 515.679,247.448 511.542,245.638 
								518.908,238.544 509.888,245.638 513.349,247.448 							"/>
							<path style="fill:#442142;" d="M546.59,285.907l-3.801-28.89v28.89l-32.9,13.989c0,0,31.532-11.404,36.397-11.556
								c4.866-0.152,9.883,1.825,9.883,1.825S554.04,286.667,546.59,285.907z"/>
							<path style="fill:#442142;" d="M485.997,293.205c0.684,9.275,6.462,8.819,6.462,8.819
								C488.05,300.504,485.997,293.205,485.997,293.205z"/>
							<polygon style="fill:#442142;" points="502.495,309.171 503.776,257.017 498.998,309.171 							"/>
						</g>
					</g>
					<g>
						<g>
							<polygon style="fill:#FFF9EF;" points="510.402,299.895 513.662,298.547 513.662,309.171 506.524,309.171 							"/>
							<g>
								<path style="fill:#FFC8AF;" d="M510.402,299.895l-3.877,9.275h-13.001C493.524,309.171,494.436,300.279,510.402,299.895z"/>
								<polygon style="fill:#EA7168;" points="506.524,309.171 503.776,309.171 510.402,299.895 								"/>
							</g>
						</g>
						<g>
							<g>
								<path style="fill:#FFC8AF;" d="M464.558,299.895l-3.877,9.275H447.68C447.68,309.171,448.592,300.279,464.558,299.895z"/>
								<polygon style="fill:#EA7168;" points="460.681,309.171 457.932,309.171 464.558,299.895 								"/>
							</g>
							<polygon style="fill:#FFF9EF;" points="464.558,299.895 460.681,309.171 466.268,309.171 466.745,299.241 							"/>
						</g>
					</g>
				</g>
			</g>
			<path style="fill:#FFCF9F;" d="M512.478,379.905c0,0-5.953-16.756,9.057-21.013c11.978-3.397,42.1-13.186,44.678-17.313
				c2.578-4.127,9.192-66.392,17.631-65.936c8.439,0.456,17.106,39.001,12.316,55.879
				C591.369,348.4,591.872,381.532,512.478,379.905z"/>
		</g>
		<g>
			<path style="fill:#996C47;" d="M223.112,456.362l-29.013-125.723c-0.559-2.42-2.713-4.134-5.197-4.134
				c-1.151,0-2.197,0.365-3.055,0.969c-0.859-0.604-1.904-0.969-3.055-0.969h0c-2.484,0-4.639,1.714-5.197,4.134l-29.013,125.723
				c-0.771,3.342,1.767,6.533,5.197,6.533h0c2.484,0,4.639-1.714,5.197-4.134l26.871-116.442l26.871,116.442
				c0.559,2.42,2.713,4.134,5.197,4.134C221.345,462.895,223.883,459.704,223.112,456.362z"/>
			<g>
				<path style="fill:#BA885A;" d="M596.579,325.592H164.52c-2.623,0-4.75-2.127-4.75-4.75v-6.922c0-2.623,2.127-4.75,4.75-4.75
					h432.059c2.623,0,4.75,2.127,4.75,4.75v6.922C601.329,323.466,599.202,325.592,596.579,325.592z"/>
				<path style="fill:#996C47;" d="M586.808,334.259h-414.19c-2.393,0-4.334-1.94-4.334-4.333l0,0c0-2.393,1.94-4.333,4.334-4.333
					h414.19c2.393,0,4.333,1.94,4.333,4.333l0,0C591.141,332.319,589.201,334.259,586.808,334.259z"/>
				<path style="fill:#E0A977;" d="M289.586,325.592H164.52c-2.623,0-4.75-2.127-4.75-4.75v-6.922c0-2.623,2.127-4.75,4.75-4.75
					h125.066c2.623,0,4.75,2.127,4.75,4.75v6.922C294.336,323.466,292.209,325.592,289.586,325.592z"/>
				<path style="fill:#A8734C;" d="M302.166,334.259H172.618c-2.393,0-4.334-1.94-4.334-4.333l0,0c0-2.393,1.94-4.333,4.334-4.333
					h129.548c2.393,0,4.333,1.94,4.333,4.333l0,0C306.5,332.319,304.56,334.259,302.166,334.259z"/>
			</g>
		</g>
		<g>
			<g>
				<path style="fill:#00A18F;" d="M336.016,303.678l-12.213-35.619c-0.284-0.83-1.065-1.387-1.942-1.387h-57.047
					c-1.409,0-2.399,1.386-1.942,2.718l13.164,38.393c0.284,0.83,1.065,1.387,1.942,1.387h20.007h39.914h21.708
					c1.134,0,2.053-0.919,2.053-2.053l0,0c0-1.134-0.919-2.053-2.053-2.053h-21.649
					C337.081,305.065,336.301,304.508,336.016,303.678z"/>
				<path style="fill:#22D6BC;" d="M339.665,303.678l-12.213-35.619c-0.284-0.83-1.065-1.387-1.942-1.387h-57.047
					c-1.409,0-2.399,1.386-1.942,2.718l13.164,38.393c0.285,0.83,1.065,1.387,1.942,1.387h20.007h39.914h21.708
					c1.134,0,2.053-0.919,2.053-2.053l0,0c0-1.134-0.919-2.053-2.053-2.053h-21.65C340.73,305.065,339.95,304.508,339.665,303.678z"
					/>
				<path style="fill:#B1F2E8;" d="M332.968,305.065h-47.823c-0.877,0-1.657-0.557-1.942-1.387l-10.975-32.007
					c-0.457-1.332,0.533-2.719,1.942-2.719h47.823c0.877,0,1.657,0.557,1.942,1.387l10.975,32.007
					C335.366,303.679,334.376,305.065,332.968,305.065z"/>
			</g>
			<g>
				<path style="fill:#22D6BC;" d="M469.769,304.995l-15.711-37.72c-0.248-0.595-0.829-0.983-1.474-0.983h-55.899
					c-1.139,0-1.912,1.159-1.474,2.21l16.53,39.686c0.248,0.595,0.829,0.983,1.474,0.983h32.065h26.229h28.282
					c0.882,0,1.596-0.715,1.596-1.597l0,0c0-0.882-0.715-1.596-1.596-1.596h-28.547C470.598,305.978,470.017,305.59,469.769,304.995
					z"/>
				<path style="fill:#00A2A9;" d="M465.465,309.171h-55.899c-0.645,0-1.226-0.388-1.474-0.983l-16.53-39.686
					c-0.438-1.052,0.335-2.21,1.474-2.21h55.899c0.645,0,1.226,0.388,1.474,0.983l16.53,39.686
					C467.377,308.012,466.604,309.171,465.465,309.171z"/>
			</g>
		</g>
		<g>
			<g>
				<g>
					<g>
						<path style="fill:#FF9E9B;" d="M333.185,450.579l4.333-24.024h13.837l-6.502,21.254
							C344.853,447.809,342.308,465.09,333.185,450.579z"/>
						<polygon style="fill:#E27171;" points="335.215,439.327 346.783,441.501 347.375,439.25 						"/>
						<path style="fill:#714059;" d="M309.769,462.895h19.998l6.491-3.158l1.579,3.158h8.947c0,0-0.41-18.195-1.93-15.086
							c-2.288,4.68-5.852,2.11-8.345,0.688c-2.39-1.364-5.37-0.978-7.29,0.994c-2.171,2.229-4.978,4.634-7.521,5.336
							C316.61,456.229,309.769,455.703,309.769,462.895z"/>
					</g>
					<g>
						<path style="fill:#FF9E9B;" d="M281.519,441.32l12.194-21.148l13.023,4.674l-13.3,17.808
							C293.437,442.654,285.204,458.059,281.519,441.32z"/>
						<polygon style="fill:#E27171;" points="288.178,429.771 295.508,439.881 297.752,436.877 						"/>
						<path style="fill:#714059;" d="M255.319,445.002l18.822,6.755l7.176-0.779l0.419,3.505l8.421,3.022
							c0,0,5.76-17.263,3.28-14.851c-3.735,3.632-6.221,0.009-8.087-2.172c-1.789-2.091-4.724-2.734-7.197-1.527
							c-2.796,1.365-6.25,2.68-8.882,2.481C264.01,441.039,257.749,438.232,255.319,445.002z"/>
					</g>
				</g>
				<g>
					<path style="fill:#413F72;" d="M421.431,341.143c0,0-0.416,17.901-12.134,20.333c-11.718,2.433-35.742,3.953-35.742,3.953
						l-21.421,73.897h-22.978l12.164-73.289L303.307,441l-19.463-14.445c0,0,32.843-84.059,37.709-87.278
						c4.866-3.219,21.287-5.778,40.826-9.351C379.43,326.807,421.431,341.143,421.431,341.143z"/>
					<g>
						<path style="fill:#1F1F4C;" d="M362.379,329.926c0,0,4.93,7.831,16.948,11.936c10.131,3.461,34.571,1.538,41.997,0.848
							c0.092-0.975,0.107-1.567,0.107-1.567S379.43,326.807,362.379,329.926z"/>
						<polygon style="fill:#1F1F4C;" points="329.156,439.327 352.134,439.327 373.555,365.43 341.32,366.038 						"/>
					</g>
				</g>
				<g>
					<g>
						<path style="fill:#413F72;" d="M383.134,242.717c0,0-6.158,2.665-9.579,5.251c-3.421,2.586-30.79,37.265-30.79,37.265
							l-30.791,12.384l-0.912,11.554l45.844-5.312l10.035-6.242l-4.561,32.309c0,0,23.036,13.229,41.738,12.544
							c18.702-0.684,20.071-2.053,20.071-2.053s-0.456-74.125-1.14-82.336c-0.684-8.211-7.527-13.006-10.492-14.485
							C409.591,242.116,392.713,237.465,383.134,242.717z"/>
						<g>
							<polygon style="fill:#1F1F4C;" points="362.379,329.926 370.362,302.028 380.549,283.094 366.94,297.616 							"/>
							<path style="fill:#1F1F4C;" d="M423.048,258.081c-0.684-8.211-7.527-13.006-10.492-14.485
								c-2.965-1.48-19.843-6.13-29.422-0.879c0,0-1.082,0.47-2.585,1.201c0,0.001-7.159,16.73,13.174,26.024
								c18.555,8.481,24.246,9.605,29.779,3.777C423.366,265.959,423.214,260.074,423.048,258.081z"/>
						</g>
						<polygon style="fill:#FFF9EF;" points="311.974,297.616 311.061,309.171 316.978,308.485 315.714,296.112 						"/>
					</g>
					<g>
						<path style="fill:#FF9E9B;" d="M311.974,297.616c0,0-17.638,1.975-17.638,11.554h16.726L311.974,297.616z"/>
						<polygon style="fill:#E27171;" points="311.974,297.616 311.061,309.171 308.417,309.167 						"/>
					</g>
				</g>
				<g>
					<path style="fill:#FF9E9B;" d="M390.775,203.943c-9.006,0-16.308,8.68-16.308,19.387c0,0.219,0.021,0.432,0.028,0.649
						l-0.015,0.007c0,0,0.01,0.09,0.026,0.244c0.025,0.645,0.075,1.281,0.152,1.908c0.094,1.593,0.132,3.692-0.19,4.917
						c-0.492,1.87,3.238,11.268,6.082,12.864c2.768,2.576,6.437-1.201,10.225-1.201c9.006,0,16.307-8.68,16.307-19.387
						S399.781,203.943,390.775,203.943z"/>
					<g>
						<path style="fill:#C9450F;" d="M374.96,218.585c0,0-5.055-3.687-1.406-10.681c3.649-6.994,12.164-12.924,19.615-11.404
							c7.451,1.52,13.381,3.801,16.726,13.837c3.345,10.035,5.17,16.007,10.796,25.87c5.626,9.863,8.819,32.518,0,37.992
							c-8.819,5.474-34.744-8.116-38.697-17.182c-3.953-9.066,0.836-27.002,0.684-31.291c-0.152-4.289-3.011-9.776-4.258-11.436
							C377.174,212.631,374.96,218.585,374.96,218.585z"/>
						<path style="fill:#9E3A16;" d="M409.297,208.705c-3.429-8.654-9.101-10.771-16.127-12.205
							c-0.621-0.127-1.251-0.184-1.884-0.211C391.368,196.582,394.761,208.244,409.297,208.705z"/>
						<path style="fill:#C9450F;" d="M414.113,202.564c-1.907,3.599-8.779,3.693-15.348,0.212
							c-6.569-3.482-10.348-9.221-8.441-12.82c1.907-3.599,8.779-3.693,15.348-0.212
							C412.241,193.226,416.02,198.965,414.113,202.564z"/>
					</g>
				</g>
			</g>
			<g>
				<path style="fill:#FFCF9F;" d="M370.182,377.066c0,0-35.4-5.098-37.225-14.525c-1.825-9.427,36.036-15.484,43.335-20.045
					c7.298-4.561,10.035-65.136,42.879-63.54c32.843,1.596,38.925,48.208,33.756,63.54
					C447.756,357.827,427.021,384.14,370.182,377.066z"/>
				<g>
					<path style="fill:#C68F61;" d="M411.63,459.313l-24.328-85.803c-0.561-1.979-2.62-3.582-4.598-3.582h-0.283
						c-1.979,0-3.128,1.604-2.567,3.582l24.328,85.803c0.561,1.978,2.62,3.582,4.598,3.582h0.282
						C411.042,462.895,412.191,461.291,411.63,459.313z"/>
					<g>
						<path style="fill:#E5A56C;" d="M447.639,459.313l-24.328-85.803c-0.561-1.979-2.62-3.582-4.598-3.582h-0.282
							c-1.979,0-3.128,1.604-2.567,3.582l24.328,85.803c0.561,1.978,2.62,3.582,4.598,3.582h0.282
							C447.051,462.895,448.2,461.291,447.639,459.313z"/>
						<path style="fill:#E5A56C;" d="M362.941,369.927h-0.282c-1.979,0-4.037,1.604-4.598,3.582l-24.328,85.803
							c-0.561,1.978,0.588,3.582,2.567,3.582h0.282c1.979,0,4.037-1.604,4.598-3.582l24.328-85.803
							C366.069,371.531,364.92,369.927,362.941,369.927z"/>
						<path style="fill:#E5A56C;" d="M398.95,369.927h-0.283c-1.978,0-4.037,1.604-4.598,3.582l-24.328,85.803
							c-0.561,1.978,0.588,3.582,2.567,3.582h0.282c1.979,0,4.037-1.604,4.598-3.582l24.328-85.803
							C402.078,371.531,400.928,369.927,398.95,369.927z"/>
					</g>
				</g>
				<path style="fill:#E5A56C;" d="M451.671,345.708c-0.855-2.642-2.118-5.622-3.89-9.034
					c-13.356-25.715-52.027,13.854-57.952,20.241c-5.925,6.386-19.62,8.819-37.192,8.91c-17.572,0.091-8.997,4.755-8.997,4.755
					l0,0.002c11.017,4.248,26.541,6.485,26.541,6.485C423.219,383.667,444.818,361.199,451.671,345.708z"/>
			</g>
		</g>
		<g>
			<g>
				<g>
					<g>
						<path style="fill:#E5A56C;" d="M637.732,387.366c7.624,3.139,19.153-7.308,25.751-23.333
							c6.597-16.025,5.765-31.561-1.859-34.699c-7.624-3.139-19.153,7.308-25.751,23.333
							C629.276,368.692,630.108,384.228,637.732,387.366z"/>
						
							<ellipse transform="matrix(0.7928 -0.6095 0.6095 0.7928 -106.3551 485.1746)" style="fill:#E5A56C;" cx="660.323" cy="398.994" rx="27.104" ry="12.895"/>
						<path style="fill:#E5A56C;" d="M612.054,341.705c-6.177,0.906-9.642,12.166-7.738,25.15
							c1.904,12.985,8.455,22.776,14.632,21.871s9.642-12.166,7.739-25.15C624.782,350.591,618.231,340.799,612.054,341.705z"/>
						<path style="fill:#E5A56C;" d="M587.465,377.036c-4.226,3.35-1.943,13.267,5.099,22.15
							c7.042,8.882,16.177,13.367,20.403,10.017c4.226-3.35,1.943-13.267-5.099-22.15
							C600.825,378.17,591.69,373.685,587.465,377.036z"/>
					</g>
					<path style="fill:#FFFFFF;" d="M680.143,383.147c-0.062-0.132-0.217-0.188-0.35-0.125c-0.099,0.047-6.048,2.896-14.228,8.429
						c-0.039,0.014-0.072,0.039-0.101,0.069c-3.145,2.131-6.616,4.659-10.209,7.573l0.004-10.343c0-0.145-0.118-0.263-0.263-0.263
						c-0.144-0.001-0.263,0.118-0.263,0.263l-0.004,10.771c-2.577,2.111-5.211,4.416-7.828,6.921
						c-4.686,4.485-8.861,9.152-12.502,13.968c-0.401-2.211-1.643-10.814,0.381-23.982c0.669-4.353,1.749-9.494,3.464-15.298
						l13.859-4.304c0.139-0.043,0.216-0.19,0.173-0.329c-0.043-0.139-0.19-0.221-0.329-0.173l-13.522,4.199
						c2.091-6.957,5.092-14.847,9.386-23.47l16.248-3.017c0.143-0.026,0.237-0.163,0.21-0.306c-0.026-0.143-0.163-0.241-0.306-0.21
						l-15.856,2.945c3.648-7.255,8.205-15.018,13.905-23.173c0.083-0.119,0.054-0.283-0.065-0.366
						c-0.119-0.082-0.283-0.054-0.366,0.065c-2.343,3.352-4.493,6.638-6.468,9.85l-3.503-9.17c-0.052-0.135-0.206-0.204-0.339-0.152
						c-0.136,0.052-0.204,0.204-0.152,0.339l3.649,9.552c-2.786,4.568-5.222,8.988-7.34,13.229c-0.043,0.042-0.07,0.096-0.077,0.157
						c-1.911,3.837-3.565,7.528-5,11.059l-7.44-7.055c-0.106-0.099-0.272-0.095-0.372,0.01c-0.1,0.105-0.095,0.272,0.01,0.372
						l7.591,7.198c-1.767,4.397-3.197,8.544-4.342,12.398c-0.033,0.047-0.05,0.103-0.047,0.162
						c-1.733,5.861-2.823,11.051-3.496,15.442c-2.22,14.477-0.512,23.492-0.281,24.6c-3.495,4.69-6.49,9.518-8.951,14.456
						c-1.746,3.504-3.215,7.067-4.426,10.678c0.702-6.498,0.324-13.102-1.141-19.74c-0.901-4.08-2.214-8.177-3.921-12.264
						c0.373-0.772,3.284-7.081,4.312-18.124c0.312-3.35,0.465-7.363,0.268-11.987c0.013-0.043,0.011-0.087-0.005-0.128
						c-0.133-3.041-0.422-6.35-0.913-9.905l6.899-3.894c0.096-0.054,0.129-0.175,0.075-0.271c-0.054-0.096-0.175-0.129-0.271-0.075
						l-6.762,3.816c-0.406-2.858-0.943-5.873-1.642-9.043c0.006-0.046-0.004-0.091-0.028-0.13
						c-0.777-3.505-1.755-7.199-2.963-11.067l4.435-6.347c0.063-0.09,0.041-0.214-0.049-0.277c-0.088-0.063-0.214-0.041-0.277,0.049
						l-4.257,6.093c-0.861-2.723-1.837-5.532-2.942-8.424c-0.039-0.103-0.154-0.154-0.257-0.115
						c-0.103,0.039-0.154,0.154-0.115,0.257c2.69,7.038,4.612,13.578,5.959,19.578l-11.108-5.075
						c-0.099-0.048-0.218-0.002-0.264,0.098c-0.046,0.1-0.002,0.218,0.098,0.264l11.383,5.201
						c1.571,7.123,2.326,13.471,2.585,18.965l-9.163-5.568c-0.093-0.061-0.216-0.027-0.273,0.067
						c-0.057,0.094-0.027,0.216,0.067,0.273l9.391,5.707c0.193,4.579,0.043,8.554-0.265,11.875
						c-0.932,10.045-3.424,16.138-4.125,17.688c-1.79-4.207-4-8.403-6.619-12.558c-1.463-2.321-2.974-4.498-4.48-6.522l1.975-7.914
						c0.026-0.107-0.039-0.216-0.145-0.241c-0.107-0.027-0.215,0.038-0.242,0.145l-1.897,7.599c-2.104-2.801-4.19-5.296-6.109-7.438
						c-0.016-0.027-0.035-0.052-0.062-0.069c-4.993-5.567-8.84-8.753-8.904-8.805c-0.086-0.071-0.21-0.058-0.28,0.028
						c-0.07,0.085-0.057,0.21,0.027,0.28c0.062,0.051,3.711,3.076,8.505,8.37l-9.639-1.598c-0.108-0.018-0.211,0.055-0.229,0.164
						c-0.016,0.094,0.038,0.184,0.124,0.218c0.013,0.005,0.026,0.009,0.04,0.011l10.133,1.68c3.371,3.765,7.258,8.613,10.852,14.315
						c0.599,0.951,1.198,1.945,1.793,2.971l-9.592-1.043c-0.109-0.012-0.207,0.067-0.219,0.176c-0.01,0.091,0.044,0.175,0.125,0.207
						c0.016,0.006,0.033,0.01,0.051,0.013l9.88,1.075c6.256,10.94,11.784,25.941,9.589,42.776h0.765
						c4.913-15.311,13.954-27.714,22.781-36.919l13.002,1.788c0.024,0.003,0.047,0.003,0.07,0c0.115-0.015,0.21-0.105,0.227-0.225
						c0.02-0.144-0.081-0.276-0.224-0.296l-12.622-1.735c1.09-1.125,2.176-2.206,3.248-3.233c6.43-6.155,12.963-11.12,18.487-14.864
						l13.519,1.093c0.019,0.001,0.037,0.001,0.055-0.001c0.121-0.016,0.218-0.113,0.228-0.24c0.012-0.145-0.096-0.271-0.241-0.283
						l-12.861-1.039c7.838-5.247,13.481-7.954,13.578-8C680.149,383.435,680.205,383.278,680.143,383.147z"/>
				</g>
				<g>
					<polygon style="fill:#FFFFFF;" points="627.989,429 623.545,429 608.055,429 613.711,461.05 623.545,461.05 627.989,461.05 
						637.823,461.05 643.478,429 					"/>
					<g>
						<path style="fill:#EACFB9;" d="M640.222,448.951c-1.19,0-1.792-0.831-2.487-1.793c-0.748-1.034-1.597-2.207-3.299-2.207
							c-1.702,0-2.55,1.173-3.298,2.207c-0.695,0.962-1.297,1.793-2.487,1.793c-1.19,0-1.791-0.831-2.486-1.793
							c-0.748-1.034-1.595-2.207-3.296-2.207c-1.7,0-2.547,1.173-3.294,2.207c-0.694,0.962-1.295,1.793-2.483,1.793
							c-1.189,0-1.789-0.831-2.484-1.793c-0.747-1.034-1.595-2.207-3.296-2.207c-0.276,0-0.5,0.224-0.5,0.5
							c0,0.276,0.224,0.5,0.5,0.5c1.189,0,1.79,0.831,2.485,1.793c0.747,1.034,1.595,2.207,3.295,2.207s2.547-1.173,3.294-2.207
							c0.694-0.962,1.295-1.793,2.483-1.793c1.189,0,1.79,0.831,2.485,1.793c0.748,1.034,1.596,2.207,3.297,2.207
							c1.702,0,2.55-1.173,3.298-2.207c0.695-0.962,1.297-1.793,2.487-1.793c1.191,0,1.793,0.831,2.488,1.793
							c0.748,1.034,1.597,2.207,3.298,2.207c0.276,0,0.5-0.224,0.5-0.5C640.722,449.175,640.499,448.951,640.222,448.951z"/>
						<path style="fill:#EACFB9;" d="M640.977,444.677c-1.274,0-1.91-0.835-2.647-1.803c-0.783-1.03-1.672-2.197-3.441-2.197
							c-1.769,0-2.658,1.167-3.441,2.197c-0.736,0.968-1.372,1.803-2.646,1.803c-1.273,0-1.908-0.835-2.644-1.803
							c-0.784-1.03-1.672-2.197-3.44-2.197c-1.768,0-2.654,1.167-3.438,2.197c-0.734,0.968-1.369,1.803-2.641,1.803
							c-1.272,0-1.907-0.835-2.643-1.803c-0.783-1.03-1.671-2.197-3.439-2.197c-0.276,0-0.5,0.224-0.5,0.5
							c0,0.276,0.224,0.5,0.5,0.5c1.272,0,1.907,0.835,2.643,1.803c0.783,1.03,1.671,2.197,3.439,2.197
							c1.768,0,2.654-1.167,3.438-2.197c0.734-0.968,1.369-1.803,2.641-1.803c1.273,0,1.908,0.835,2.644,1.803
							c0.784,1.03,1.672,2.197,3.44,2.197c1.77,0,2.658-1.167,3.441-2.197c0.736-0.968,1.372-1.803,2.646-1.803
							c1.274,0,1.91,0.835,2.647,1.803c0.783,1.03,1.672,2.197,3.441,2.197c0.276,0,0.5-0.224,0.5-0.5
							C641.477,444.9,641.253,444.677,640.977,444.677z"/>
					</g>
				</g>
			</g>
			<g>
				<g>
					<g>
						
							<ellipse transform="matrix(0.9247 -0.3807 0.3807 0.9247 -135.4925 68.2994)" style="fill:#E5A56C;" cx="104.906" cy="376.657" rx="12.626" ry="26.538"/>
						<path style="fill:#E5A56C;" d="M77.731,397.058c3.671-4.775,14.783-2.39,24.819,5.326
							c10.036,7.716,15.196,17.842,11.525,22.617c-3.671,4.775-14.783,2.39-24.819-5.326
							C79.22,411.959,74.06,401.833,77.731,397.058z"/>
						<path style="fill:#E5A56C;" d="M136.725,362.58c5.224,0.766,8.154,10.289,6.544,21.27c-1.61,10.981-7.15,19.262-12.375,18.496
							c-5.224-0.766-8.154-10.289-6.545-21.27C125.961,370.095,131.501,361.814,136.725,362.58z"/>
						<path style="fill:#E5A56C;" d="M157.521,392.46c3.574,2.833,1.643,11.22-4.313,18.732
							c-5.956,7.512-13.681,11.305-17.255,8.471c-3.574-2.833-1.643-11.22,4.313-18.732
							C146.222,393.419,153.947,389.626,157.521,392.46z"/>
					</g>
					<path style="fill:#FFFFFF;" d="M79.141,397.628c0.053-0.111,0.184-0.159,0.296-0.106c0.084,0.04,5.115,2.449,12.033,7.128
						c0.033,0.012,0.061,0.033,0.086,0.058c2.66,1.802,5.595,3.94,8.634,6.405l-0.003-8.747c0-0.123,0.1-0.223,0.222-0.223
						c0.122-0.001,0.222,0.099,0.222,0.222l0.003,9.109c2.18,1.785,4.407,3.734,6.621,5.853c3.963,3.793,7.494,7.74,10.573,11.813
						c0.339-1.87,1.389-9.146-0.322-20.282c-0.566-3.681-1.48-8.029-2.929-12.938l-11.721-3.64
						c-0.117-0.036-0.183-0.161-0.146-0.278c0.036-0.117,0.161-0.187,0.278-0.146l11.436,3.551
						c-1.769-5.884-4.306-12.556-7.937-19.849l-13.742-2.552c-0.121-0.022-0.2-0.138-0.178-0.259
						c0.022-0.121,0.138-0.204,0.259-0.178l13.41,2.49c-3.085-6.135-6.939-12.701-11.76-19.598c-0.07-0.101-0.046-0.239,0.055-0.31
						c0.101-0.07,0.239-0.046,0.31,0.055c1.981,2.835,3.8,5.614,5.47,8.331l2.962-7.755c0.044-0.115,0.174-0.173,0.287-0.128
						c0.115,0.044,0.172,0.172,0.128,0.287l-3.086,8.078c2.356,3.863,4.416,7.601,6.208,11.188c0.036,0.036,0.06,0.081,0.065,0.133
						c1.616,3.245,3.015,6.367,4.229,9.353l6.293-5.967c0.089-0.084,0.23-0.081,0.314,0.008c0.084,0.089,0.081,0.23-0.008,0.314
						l-6.42,6.088c1.495,3.719,2.704,7.226,3.672,10.485c0.028,0.04,0.042,0.087,0.04,0.137c1.466,4.957,2.387,9.346,2.956,13.06
						c1.877,12.243,0.433,19.868,0.237,20.805c2.956,3.966,5.489,8.049,7.57,12.226c1.476,2.963,2.719,5.976,3.743,9.03
						c-0.594-5.495-0.274-11.081,0.965-16.695c0.762-3.451,1.872-6.915,3.316-10.372c-0.316-0.652-2.777-5.989-3.647-15.328
						c-0.264-2.833-0.393-6.227-0.227-10.137c-0.011-0.036-0.009-0.073,0.004-0.108c0.113-2.572,0.357-5.371,0.772-8.377
						l-5.834-3.293c-0.081-0.046-0.109-0.148-0.064-0.229c0.046-0.081,0.148-0.109,0.229-0.064l5.718,3.228
						c0.343-2.417,0.797-4.967,1.389-7.648c-0.005-0.039,0.003-0.077,0.024-0.11c0.657-2.964,1.484-6.089,2.506-9.359l-3.751-5.368
						c-0.053-0.076-0.035-0.181,0.042-0.234c0.074-0.053,0.181-0.034,0.234,0.042l3.6,5.153c0.728-2.303,1.554-4.678,2.488-7.125
						c0.033-0.087,0.131-0.13,0.217-0.097c0.087,0.033,0.13,0.131,0.097,0.217c-2.275,5.952-3.9,11.483-5.04,16.557l9.394-4.292
						c0.084-0.041,0.185-0.001,0.223,0.083c0.039,0.085,0.002,0.184-0.083,0.223l-9.627,4.398
						c-1.328,6.024-1.967,11.392-2.186,16.039l7.749-4.709c0.079-0.052,0.183-0.023,0.231,0.056
						c0.048,0.079,0.023,0.183-0.057,0.231l-7.942,4.827c-0.163,3.872-0.036,7.234,0.224,10.043
						c0.788,8.495,2.896,13.648,3.489,14.959c1.514-3.558,3.383-7.106,5.598-10.62c1.237-1.963,2.515-3.804,3.789-5.516
						l-1.671-6.693c-0.022-0.09,0.033-0.182,0.123-0.204c0.09-0.023,0.182,0.032,0.204,0.123l1.604,6.427
						c1.78-2.368,3.543-4.478,5.166-6.291c0.013-0.023,0.03-0.044,0.052-0.059c4.223-4.708,7.476-7.402,7.531-7.447
						c0.073-0.06,0.178-0.049,0.237,0.023c0.059,0.072,0.048,0.178-0.023,0.237c-0.053,0.043-3.139,2.601-7.193,7.079l8.152-1.352
						c0.092-0.015,0.178,0.047,0.194,0.139c0.013,0.08-0.032,0.156-0.105,0.184c-0.011,0.004-0.022,0.007-0.034,0.009l-8.569,1.421
						c-2.851,3.184-6.139,7.284-9.177,12.107c-0.507,0.804-1.013,1.645-1.516,2.513l8.112-0.882c0.092-0.01,0.175,0.057,0.185,0.149
						c0.008,0.077-0.037,0.148-0.106,0.175c-0.014,0.005-0.028,0.009-0.043,0.011l-8.356,0.909
						c-5.29,9.252-9.966,21.939-8.11,36.176h-0.647c-4.155-12.949-11.801-23.438-19.266-31.223L99.09,422.3
						c-0.02,0.003-0.04,0.003-0.059,0c-0.097-0.012-0.178-0.089-0.192-0.19c-0.017-0.122,0.068-0.234,0.19-0.25l10.675-1.468
						c-0.922-0.951-1.84-1.866-2.747-2.734c-5.438-5.205-10.963-9.404-15.635-12.571l-11.434,0.924
						c-0.016,0.001-0.031,0.001-0.047-0.001c-0.102-0.013-0.184-0.096-0.193-0.203c-0.01-0.123,0.081-0.229,0.204-0.239
						l10.876-0.879c-6.629-4.438-11.401-6.727-11.483-6.765C79.136,397.871,79.089,397.739,79.141,397.628z"/>
				</g>
				<g>
					<polygon style="fill:#FFFFFF;" points="123.249,436.407 127.007,436.407 140.107,436.407 135.324,463.512 127.007,463.512 
						123.249,463.512 114.932,463.512 110.149,436.407 					"/>
					<g>
						<path style="fill:#EACFB9;" d="M112.903,453.28c1.007,0,1.515-0.703,2.103-1.516c0.633-0.875,1.35-1.866,2.79-1.866
							s2.156,0.992,2.789,1.866c0.588,0.814,1.097,1.516,2.104,1.516s1.515-0.703,2.103-1.516c0.633-0.875,1.349-1.866,2.787-1.866
							c1.438,0,2.154,0.992,2.786,1.866c0.587,0.814,1.095,1.516,2.1,1.516c1.006,0,1.513-0.703,2.101-1.516
							c0.632-0.875,1.349-1.866,2.787-1.866c0.234,0,0.423,0.189,0.423,0.423c0,0.234-0.189,0.423-0.423,0.423
							c-1.006,0-1.514,0.703-2.102,1.516c-0.632,0.875-1.349,1.867-2.787,1.867s-2.154-0.992-2.786-1.867
							c-0.587-0.814-1.095-1.516-2.1-1.516c-1.006,0-1.514,0.703-2.102,1.516c-0.633,0.875-1.35,1.867-2.788,1.867
							c-1.439,0-2.156-0.992-2.789-1.867c-0.588-0.814-1.097-1.516-2.104-1.516c-1.008,0-1.516,0.703-2.104,1.516
							c-0.633,0.875-1.35,1.867-2.789,1.867c-0.234,0-0.423-0.189-0.423-0.423S112.669,453.28,112.903,453.28z"/>
						<path style="fill:#EACFB9;" d="M112.264,449.665c1.078,0,1.615-0.706,2.238-1.525c0.662-0.871,1.414-1.858,2.91-1.858
							c1.497,0,2.248,0.987,2.91,1.858c0.623,0.819,1.16,1.525,2.238,1.525c1.077,0,1.614-0.706,2.236-1.525
							c0.663-0.871,1.414-1.858,2.91-1.858c1.495,0,2.245,0.987,2.907,1.858c0.621,0.819,1.158,1.525,2.233,1.525
							c1.076,0,1.613-0.706,2.235-1.525c0.662-0.871,1.413-1.858,2.909-1.858c0.234,0,0.423,0.189,0.423,0.423
							s-0.189,0.423-0.423,0.423c-1.076,0-1.613,0.706-2.235,1.525c-0.662,0.871-1.413,1.858-2.909,1.858
							c-1.495,0-2.245-0.987-2.907-1.858c-0.621-0.819-1.158-1.525-2.233-1.525c-1.077,0-1.614,0.706-2.236,1.525
							c-0.663,0.871-1.414,1.858-2.91,1.858c-1.497,0-2.248-0.987-2.91-1.858c-0.623-0.819-1.16-1.525-2.238-1.525
							c-1.078,0-1.615,0.706-2.238,1.525c-0.662,0.871-1.414,1.858-2.91,1.858c-0.234,0-0.423-0.189-0.423-0.423
							S112.031,449.665,112.264,449.665z"/>
					</g>
				</g>
			</g>
		</g>
		<g>
			<path style="fill:#996C47;" d="M597.672,456.362l-29.013-125.723c-0.559-2.42-2.713-4.134-5.197-4.134
				c-1.151,0-2.197,0.365-3.055,0.969c-0.859-0.604-1.905-0.969-3.055-0.969h0c-2.484,0-4.639,1.714-5.197,4.134l-29.013,125.723
				c-0.771,3.342,1.767,6.533,5.197,6.533l0,0c2.484,0,4.639-1.714,5.197-4.134l26.871-116.442l26.871,116.442
				c0.559,2.42,2.713,4.134,5.197,4.134C595.904,462.895,598.443,459.704,597.672,456.362z"/>
			<path style="fill:#A8734C;" d="M313.887,456.362l-29.013-125.723c-0.559-2.42-2.714-4.134-5.197-4.134
				c-1.151,0-2.197,0.365-3.055,0.969c-0.859-0.604-1.904-0.969-3.055-0.969h0c-2.484,0-4.639,1.714-5.197,4.134l-29.013,125.723
				c-0.771,3.342,1.767,6.533,5.197,6.533l0,0c2.484,0,4.639-1.714,5.197-4.134l26.871-116.442l26.871,116.442
				c0.559,2.42,2.713,4.134,5.197,4.134C312.12,462.895,314.658,459.704,313.887,456.362z"/>
		</g>
	</g>
</g>
</svg>
