<svg xmlns="http://www.w3.org/2000/svg" xmlns:xlink="http://www.w3.org/1999/xlink" width="500" zoomAndPan="magnify" viewBox="0 0 375 374.999991" height="500" preserveAspectRatio="xMidYMid meet" version="1.0"><defs><g/><clipPath id="feb54a6bc7"><path d="M 34 60.015625 L 344 60.015625 L 344 315 L 34 315 Z M 34 60.015625 " clip-rule="nonzero"/></clipPath></defs><g clip-path="url(#feb54a6bc7)"><path fill="#FFFFFF" d="M 95.21875 178.613281 C 130.382812 178.789062 165.546875 178.71875 200.703125 178.753906 C 202.410156 178.753906 204.113281 178.753906 206.960938 178.753906 C 194.371094 224.421875 181.964844 269.402344 169.425781 314.898438 L 220.765625 314.898438 C 220.824219 314.699219 220.878906 314.507812 220.929688 314.296875 C 226.328125 293.363281 232.238281 272.570312 237.800781 251.679688 C 238.640625 248.523438 239.886719 247.320312 243.355469 247.371094 C 257.445312 247.570312 271.554688 247.773438 285.632812 247.265625 C 310.03125 246.394531 327.695312 234.25 337.722656 212.417969 C 347.660156 190.777344 344.550781 169.738281 330.003906 150.941406 C 317.894531 135.28125 301.066406 128.488281 281.625 128.324219 C 250.53125 128.0625 219.441406 128.164062 188.347656 128.148438 C 158.128906 128.121094 127.90625 128.191406 97.6875 128.035156 C 94.601562 128.019531 91.253906 127.3125 88.496094 125.960938 C 83.335938 123.421875 82.488281 117.832031 86.980469 114.234375 C 89.855469 111.929688 93.84375 110.328125 97.519531 109.839844 C 103.964844 108.976562 110.566406 108.933594 117.085938 109.019531 C 149.042969 109.429688 181.007812 109.933594 212.960938 110.570312 C 217.207031 110.65625 219.203125 109.238281 220.214844 105.035156 C 223.1875 92.617188 226.554688 80.296875 229.761719 67.945312 C 230.328125 65.765625 230.871094 63.585938 231.496094 61.117188 C 229.605469 61.03125 228.316406 60.933594 227.023438 60.925781 C 196.515625 60.804688 166 60.621094 135.492188 60.601562 C 119.371094 60.59375 103.199219 60.097656 87.136719 61.167969 C 51.503906 63.558594 27.394531 97.292969 35.773438 132.054688 C 42.398438 159.5 66.429688 178.472656 95.21875 178.613281 Z M 95.21875 178.613281 " fill-opacity="1" fill-rule="nonzero"/></g><path fill="#FFFFFF" d="M 34.371094 246.8125 C 38.964844 230.734375 43.429688 214.988281 48.050781 199.285156 C 48.320312 198.363281 49.792969 197.160156 50.707031 197.148438 C 66.65625 197.019531 82.601562 197.054688 98.953125 197.054688 C 98.714844 198.625 98.664062 199.757812 98.375 200.820312 C 94.503906 215.109375 90.589844 229.382812 86.71875 243.664062 C 86.160156 245.714844 85.714844 247.390625 82.875 247.363281 C 67.335938 247.230469 51.800781 247.292969 36.269531 247.265625 C 35.851562 247.277344 35.433594 247.074219 34.371094 246.8125 Z M 34.371094 246.8125 " fill-opacity="1" fill-rule="nonzero"/><path fill="#FFFFFF" d="M 176.105469 197.480469 C 173.515625 207.125 171.050781 216.339844 168.554688 225.546875 C 166.882812 231.710938 165.277344 237.894531 163.359375 243.980469 C 162.949219 245.277344 161.34375 247.144531 160.273438 247.164062 C 144.195312 247.363281 128.109375 247.300781 111.542969 247.300781 C 111.828125 245.671875 111.941406 244.425781 112.273438 243.246094 C 116.265625 229.15625 120.296875 215.078125 124.296875 200.988281 C 124.898438 198.859375 125.28125 196.949219 128.378906 196.976562 C 143.472656 197.125 158.5625 197.046875 173.65625 197.070312 C 174.214844 197.070312 174.78125 197.253906 176.105469 197.480469 Z M 176.105469 197.480469 " fill-opacity="1" fill-rule="nonzero"/><g fill="#FFFFFF" fill-opacity="1"><g transform="translate(119.371864, 84.143301)"><g><path d="M 5 0.171875 C 4.28125 0.171875 3.632812 0.0703125 3.0625 -0.125 C 2.488281 -0.320312 2.007812 -0.578125 1.625 -0.890625 C 1.25 -1.210938 0.96875 -1.566406 0.78125 -1.953125 L 1.515625 -2.84375 L 1.71875 -2.84375 C 2.425781 -1.644531 3.519531 -1.046875 5 -1.046875 C 5.851562 -1.046875 6.488281 -1.222656 6.90625 -1.578125 C 7.332031 -1.941406 7.546875 -2.445312 7.546875 -3.09375 C 7.546875 -3.46875 7.472656 -3.785156 7.328125 -4.046875 C 7.191406 -4.304688 6.960938 -4.523438 6.640625 -4.703125 C 6.328125 -4.890625 5.898438 -5.050781 5.359375 -5.1875 L 4.015625 -5.515625 C 3.023438 -5.753906 2.289062 -6.132812 1.8125 -6.65625 C 1.34375 -7.1875 1.109375 -7.851562 1.109375 -8.65625 C 1.109375 -9.21875 1.253906 -9.722656 1.546875 -10.171875 C 1.835938 -10.617188 2.265625 -10.96875 2.828125 -11.21875 C 3.390625 -11.46875 4.0625 -11.59375 4.84375 -11.59375 C 5.707031 -11.59375 6.429688 -11.46875 7.015625 -11.21875 C 7.609375 -10.976562 8.082031 -10.617188 8.4375 -10.140625 L 7.78125 -9.25 L 7.59375 -9.25 C 7.257812 -9.65625 6.867188 -9.953125 6.421875 -10.140625 C 5.972656 -10.328125 5.445312 -10.421875 4.84375 -10.421875 C 4.050781 -10.421875 3.453125 -10.265625 3.046875 -9.953125 C 2.648438 -9.648438 2.453125 -9.226562 2.453125 -8.6875 C 2.453125 -8.164062 2.597656 -7.753906 2.890625 -7.453125 C 3.191406 -7.148438 3.691406 -6.914062 4.390625 -6.75 L 5.765625 -6.421875 C 6.867188 -6.160156 7.671875 -5.757812 8.171875 -5.21875 C 8.671875 -4.675781 8.921875 -3.988281 8.921875 -3.15625 C 8.921875 -2.507812 8.773438 -1.9375 8.484375 -1.4375 C 8.191406 -0.9375 7.75 -0.539062 7.15625 -0.25 C 6.570312 0.03125 5.851562 0.171875 5 0.171875 Z M 5 0.171875 "/></g></g></g><g fill="#FFFFFF" fill-opacity="1"><g transform="translate(129.158542, 84.143301)"><g><path d="M 1.734375 0 L 1.734375 -11.421875 L 3.078125 -11.421875 L 3.078125 -6.4375 L 3.3125 -6.4375 L 8 -11.421875 L 9.46875 -11.421875 L 9.46875 -11.234375 L 4.53125 -5.890625 L 9.859375 -0.203125 L 9.859375 0 L 8.328125 0 L 3.3125 -5.265625 L 3.078125 -5.265625 L 3.078125 0 Z M 1.734375 0 "/></g></g></g><g fill="#FFFFFF" fill-opacity="1"><g transform="translate(139.234205, 84.143301)"><g><path d="M 3.078125 0 L 1.734375 0 L 1.734375 -11.421875 L 3.078125 -11.421875 Z M 3.078125 0 "/></g></g></g><g fill="#FFFFFF" fill-opacity="1"><g transform="translate(144.037725, 84.143301)"><g><path d="M 3.078125 -11.421875 L 3.078125 -1.109375 L 8.578125 -1.109375 L 8.578125 0 L 1.734375 0 L 1.734375 -11.421875 Z M 3.078125 -11.421875 "/></g></g></g><g fill="#FFFFFF" fill-opacity="1"><g transform="translate(153.090207, 84.143301)"><g><path d="M 3.078125 -11.421875 L 3.078125 -1.109375 L 8.578125 -1.109375 L 8.578125 0 L 1.734375 0 L 1.734375 -11.421875 Z M 3.078125 -11.421875 "/></g></g></g><g fill="#FFFFFF" fill-opacity="1"><g transform="translate(162.142689, 84.143301)"><g><path d="M 5.8125 -11.421875 C 6.601562 -11.421875 7.28125 -11.28125 7.84375 -11 C 8.40625 -10.71875 8.832031 -10.316406 9.125 -9.796875 C 9.414062 -9.273438 9.5625 -8.660156 9.5625 -7.953125 C 9.5625 -7.242188 9.414062 -6.628906 9.125 -6.109375 C 8.832031 -5.585938 8.40625 -5.179688 7.84375 -4.890625 C 7.28125 -4.609375 6.601562 -4.46875 5.8125 -4.46875 L 3.078125 -4.46875 L 3.078125 0 L 1.734375 0 L 1.734375 -11.421875 Z M 5.78125 -5.625 C 7.363281 -5.625 8.15625 -6.398438 8.15625 -7.953125 C 8.15625 -9.503906 7.363281 -10.28125 5.78125 -10.28125 L 3.078125 -10.28125 L 3.078125 -5.625 Z M 5.78125 -5.625 "/></g></g></g><g fill="#FFFFFF" fill-opacity="1"><g transform="translate(172.554214, 84.143301)"><g><path d="M 3.078125 0 L 1.734375 0 L 1.734375 -11.421875 L 3.078125 -11.421875 Z M 3.078125 0 "/></g></g></g><g fill="#FFFFFF" fill-opacity="1"><g transform="translate(177.357734, 84.143301)"><g><path d="M 1.921875 0 L 0.453125 0 L 4.015625 -5.875 L 0.625 -11.421875 L 2.125 -11.421875 L 5 -6.796875 L 5.1875 -6.796875 L 8.09375 -11.421875 L 9.53125 -11.421875 L 6.140625 -5.875 L 9.703125 0 L 8.203125 0 L 5.15625 -4.953125 L 4.96875 -4.953125 Z M 1.921875 0 "/></g></g></g></svg>