<svg version="1.0" preserveAspectRatio="xMidYMid meet" viewBox="31.349999999999998 148.9499964252 323.25 77.999998128" zoomAndPan="magnify" xmlns:xlink="http://www.w3.org/1999/xlink" xmlns="http://www.w3.org/2000/svg" style="max-height: 500px" width="323.25" height="77.999998128"><defs><g/><clipPath id="07892ec1c9"><path clip-rule="nonzero" d="M 39 158.015625 L 111 158.015625 L 111 217.117188 L 39 217.117188 Z M 39 158.015625"/></clipPath></defs><g clip-path="url(#07892ec1c9)"><path fill-rule="nonzero" fill-opacity="1" d="M 53.257812 185.503906 C 61.425781 185.542969 69.597656 185.527344 77.761719 185.535156 C 78.160156 185.535156 78.554688 185.535156 79.21875 185.535156 C 76.292969 196.121094 73.410156 206.546875 70.496094 217.089844 L 82.425781 217.089844 C 82.4375 217.046875 82.449219 217 82.460938 216.953125 C 83.714844 212.101562 85.089844 207.28125 86.382812 202.4375 C 86.578125 201.707031 86.867188 201.425781 87.671875 201.4375 C 90.945312 201.484375 94.222656 201.53125 97.496094 201.414062 C 103.164062 201.214844 107.265625 198.398438 109.59375 193.335938 C 111.90625 188.320312 111.179688 183.445312 107.804688 179.085938 C 104.988281 175.457031 101.078125 173.882812 96.5625 173.84375 C 89.339844 173.785156 82.117188 173.808594 74.894531 173.804688 C 67.871094 173.796875 60.851562 173.816406 53.832031 173.777344 C 53.113281 173.773438 52.335938 173.609375 51.695312 173.296875 C 50.496094 172.710938 50.300781 171.414062 51.34375 170.578125 C 52.011719 170.046875 52.9375 169.671875 53.792969 169.5625 C 55.289062 169.359375 56.824219 169.351562 58.335938 169.371094 C 65.761719 169.464844 73.1875 169.582031 80.609375 169.730469 C 81.597656 169.75 82.0625 169.421875 82.296875 168.445312 C 82.988281 165.570312 83.769531 162.714844 84.515625 159.851562 C 84.644531 159.34375 84.773438 158.839844 84.917969 158.265625 C 84.476562 158.246094 84.179688 158.226562 83.878906 158.222656 C 76.789062 158.195312 69.699219 158.152344 62.613281 158.148438 C 58.867188 158.144531 55.109375 158.03125 51.378906 158.28125 C 43.101562 158.832031 37.5 166.652344 39.445312 174.710938 C 40.984375 181.070312 46.570312 185.46875 53.257812 185.503906 Z M 53.257812 185.503906" fill="#FFFFFF"/></g><path fill-rule="nonzero" fill-opacity="1" d="M 39.121094 201.308594 C 40.1875 197.582031 41.226562 193.933594 42.296875 190.292969 C 42.363281 190.078125 42.703125 189.800781 42.917969 189.796875 C 46.621094 189.769531 50.324219 189.777344 54.125 189.777344 C 54.070312 190.140625 54.058594 190.402344 53.992188 190.648438 C 53.089844 193.960938 52.179688 197.269531 51.28125 200.582031 C 51.152344 201.054688 51.050781 201.445312 50.390625 201.4375 C 46.78125 201.40625 43.167969 201.421875 39.5625 201.414062 C 39.464844 201.417969 39.367188 201.371094 39.121094 201.308594 Z M 39.121094 201.308594" fill="#FFFFFF"/><path fill-rule="nonzero" fill-opacity="1" d="M 72.046875 189.875 C 71.445312 192.109375 70.875 194.246094 70.292969 196.382812 C 69.90625 197.808594 69.53125 199.242188 69.085938 200.652344 C 68.992188 200.953125 68.621094 201.386719 68.371094 201.390625 C 64.636719 201.4375 60.898438 201.421875 57.050781 201.421875 C 57.117188 201.046875 57.140625 200.757812 57.21875 200.484375 C 58.148438 197.21875 59.082031 193.953125 60.011719 190.6875 C 60.152344 190.195312 60.242188 189.753906 60.960938 189.757812 C 64.46875 189.792969 67.972656 189.773438 71.480469 189.78125 C 71.609375 189.78125 71.742188 189.824219 72.046875 189.875 Z M 72.046875 189.875" fill="#FFFFFF"/><g fill-opacity="1" fill="#FFFFFF"><g transform="translate(117.927309, 204.535641)"><g><path d="M 13.265625 0.4375 L 11.25 0.09375 L 9.328125 -0.59375 L 8.34375 -0.890625 L 7.40625 -1.328125 L 6.703125 -2.078125 L 4.984375 -3.15625 L 4.34375 -3.890625 L 3.65625 -4.53125 L 2.71875 -6.359375 L 2.421875 -7.25 L 2.21875 -8.234375 L 2.078125 -9.21875 L 2.46875 -10.265625 L 3.359375 -10.65625 L 7.15625 -10.859375 L 8.09375 -10.703125 L 8.984375 -10.796875 L 9.96875 -10.40625 L 11.59375 -8.625 L 12.4375 -8.09375 L 13.265625 -7.640625 L 15.78125 -7.40625 L 16.671875 -7.546875 L 18.203125 -7.640625 L 19.875 -8.390625 L 20.515625 -9.125 L 20.921875 -10.359375 L 20.625 -11.59375 L 19.984375 -12.1875 L 18.203125 -13.015625 L 10.453125 -13.90625 L 8.6875 -14.5 L 5.328125 -16.328125 L 3.5 -18.59375 L 2.71875 -20.328125 L 2.375 -22.296875 L 2.3125 -23.828125 L 2.46875 -26.25 L 3.359375 -28.953125 L 5.078125 -31.28125 L 7.453125 -32.90625 L 9.125 -33.890625 L 11 -34.484375 L 11.890625 -34.625 L 12.875 -34.671875 L 13.953125 -34.96875 L 17.765625 -34.875 L 19.6875 -34.484375 L 22.4375 -33.546875 L 25.703125 -31.28125 L 26.78125 -29.796875 L 28.171875 -27.234375 L 28.265625 -26.296875 L 28.46875 -25.359375 L 28.0625 -24.515625 L 27.125 -23.828125 L 26.25 -23.921875 L 25.25 -23.921875 L 23.921875 -24.015625 L 21.609375 -23.828125 L 20.515625 -24.46875 L 19.78125 -25.453125 L 18.9375 -26.140625 L 18.046875 -26.734375 L 17.171875 -26.984375 L 15.59375 -27.1875 L 14.015625 -27.125 L 13.125 -26.9375 L 12.328125 -26.484375 L 11.59375 -25.953125 L 11 -25.3125 L 10.75 -23.96875 L 10.953125 -22.5 L 11.6875 -21.796875 L 13.515625 -20.921875 L 16.125 -20.375 L 17.5625 -20.375 L 18.59375 -20.171875 L 19.578125 -20.125 L 20.5625 -19.984375 L 24.421875 -18.796875 L 25.3125 -18.25 L 26.09375 -17.859375 L 26.984375 -17.0625 L 28.265625 -15.59375 L 28.8125 -14.796875 L 29.546875 -11.9375 L 29.640625 -10.359375 L 29.34375 -7.890625 L 29.046875 -7.046875 L 28.765625 -6.171875 L 28.21875 -5.078125 L 27.71875 -4.390625 L 26.296875 -2.90625 L 22.9375 -0.890625 L 22 -0.4375 L 21.109375 -0.34375 L 20.125 0.046875 L 19.140625 0.203125 L 18.15625 0.4375 L 17.171875 0.546875 Z M 13.265625 0.4375"/></g></g></g><g fill-opacity="1" fill="#FFFFFF"><g transform="translate(149.396704, 204.535641)"><g><path d="M 5.125 0.140625 L 4.25 -0.4375 L 3.75 -1.96875 L 3.65625 -4.484375 L 3.75 -5.46875 L 3.65625 -6.515625 L 3.703125 -7.296875 L 3.59375 -9.328125 L 3.75 -11.34375 L 3.65625 -12.234375 L 3.703125 -14.15625 L 3.546875 -15.25 L 3.75 -17.265625 L 3.59375 -18.109375 L 3.703125 -24.171875 L 3.546875 -25.15625 L 3.703125 -26.140625 L 3.59375 -32.15625 L 3.703125 -33 L 4.140625 -33.9375 L 5.125 -34.578125 L 6.21875 -34.625 L 7.203125 -34.53125 L 8.140625 -34.578125 L 10.609375 -34.328125 L 12.03125 -33.890625 L 12.671875 -33.09375 L 12.578125 -31.078125 L 12.625 -29.546875 L 12.53125 -28.359375 L 12.625 -27.46875 L 12.671875 -23.921875 L 12.625 -22.984375 L 12.875 -21.953125 L 13.71875 -21.359375 L 14.796875 -21.359375 L 15.78125 -21.65625 L 16.875 -21.796875 L 17.765625 -22.203125 L 19.484375 -23.4375 L 20.625 -25.015625 L 20.921875 -26.046875 L 21.21875 -26.78125 L 21.609375 -29.984375 L 21.5625 -30.984375 L 21.703125 -31.921875 L 21.703125 -33 L 22.09375 -33.9375 L 23.140625 -34.53125 L 24.609375 -34.578125 L 26.09375 -34.375 L 27.71875 -34.578125 L 29.203125 -34.4375 L 30.28125 -33.984375 L 30.734375 -33 L 30.578125 -29.9375 L 30.6875 -28.953125 L 30.34375 -25.796875 L 29.5 -22.9375 L 29.15625 -22.046875 L 28.40625 -20.765625 L 26.828125 -18.75 L 25.3125 -17.46875 L 24.65625 -16.421875 L 24.859375 -15.296875 L 26.484375 -12.671875 L 26.890625 -11.84375 L 27.421875 -10.90625 L 27.96875 -10.203125 L 29.5 -7.6875 L 30.140625 -6.90625 L 33.203125 -1.328125 L 32.953125 -0.25 L 31.921875 0 L 30.921875 -0.046875 L 30.046875 0.046875 L 25.0625 0.09375 L 23.921875 -0.390625 L 22.984375 -1.328125 L 22.5 -1.96875 L 22 -2.90625 L 21.40625 -3.65625 L 20.46875 -5.46875 L 20.03125 -6.171875 L 19.6875 -7 L 17.65625 -10.3125 L 17.3125 -11.34375 L 16.828125 -12.140625 L 15.6875 -12.96875 L 14.359375 -13.078125 L 13.125 -12.53125 L 12.578125 -11.6875 L 12.734375 -6.515625 L 12.578125 -5.46875 L 12.671875 -1.53125 L 12.140625 -0.4375 L 11.140625 -0.046875 L 9.5625 0.09375 L 8.1875 0 Z M 5.125 0.140625"/></g></g></g><g fill-opacity="1" fill="#FFFFFF"><g transform="translate(183.578984, 204.535641)"><g><path d="M 16.53125 0.203125 L 15.53125 -0.046875 L 13.125 -0.046875 L 11.640625 0.140625 L 9.671875 -0.046875 L 8.6875 0.046875 L 7.15625 0.09375 L 5.71875 -0.09375 L 4.78125 0 L 3.84375 0 L 2.859375 -0.4375 L 2.375 -1.78125 L 2.515625 -6.3125 L 3.0625 -7.203125 L 6.3125 -8.1875 L 6.859375 -9.671875 L 6.703125 -24.8125 L 6.265625 -26.140625 L 5.328125 -26.734375 L 4.34375 -26.734375 L 3.25 -27.28125 L 2.71875 -28.265625 L 2.8125 -29.203125 L 2.65625 -32.859375 L 3.15625 -34.03125 L 4.140625 -34.53125 L 5.28125 -34.53125 L 6.21875 -34.375 L 10.265625 -34.375 L 11.25 -34.578125 L 12.140625 -34.484375 L 18.109375 -34.484375 L 18.984375 -33.9375 L 19.578125 -33 L 19.53125 -28.109375 L 19.046875 -27.328125 L 18 -26.9375 L 17.015625 -26.78125 L 15.9375 -26.34375 L 15.59375 -25.203125 L 15.390625 -20.21875 L 15.59375 -16.671875 L 15.484375 -15.59375 L 15.53125 -10.15625 L 15.390625 -9.21875 L 15.984375 -8.09375 L 17.171875 -7.6875 L 18.203125 -7.6875 L 19.28125 -7.15625 L 19.875 -6.21875 L 19.875 -1.328125 L 19.390625 -0.390625 L 18.5 0.09375 Z M 16.53125 0.203125"/></g></g></g><g fill-opacity="1" fill="#FFFFFF"><g transform="translate(205.97257, 204.535641)"><g><path d="M 3.75 -1.78125 L 3.703125 -20.28125 L 3.59375 -21.21875 L 3.546875 -22.296875 L 3.703125 -24.125 L 3.59375 -25.109375 L 3.703125 -26.046875 L 3.703125 -32.953125 L 4.140625 -34.03125 L 5.171875 -34.4375 L 6.109375 -34.578125 L 8.09375 -34.375 L 9.078125 -34.578125 L 11 -34.578125 L 11.984375 -33.984375 L 12.484375 -32.90625 L 12.4375 -31.96875 L 12.578125 -29.15625 L 12.484375 -27.1875 L 12.578125 -26 L 12.53125 -9.28125 L 12.921875 -8.28125 L 13.90625 -7.890625 L 14.953125 -7.984375 L 16.875 -7.890625 L 17.765625 -8.046875 L 18.75 -7.84375 L 20.765625 -7.890625 L 21.796875 -7.75 L 22.734375 -7.9375 L 23.78125 -8.046875 L 24.65625 -7.453125 L 25.109375 -5.96875 L 25.15625 -1.96875 L 24.609375 -0.4375 L 23.671875 0.046875 L 13.90625 0 L 12.828125 0.09375 L 11.890625 -0.046875 L 10.015625 0.046875 L 8.09375 -0.046875 L 6.015625 0.09375 L 5.03125 0 L 4.09375 -0.5 Z M 3.75 -1.78125"/></g></g></g><g fill-opacity="1" fill="#FFFFFF"><g transform="translate(232.509461, 204.535641)"><g><path d="M 3.75 -1.78125 L 3.703125 -20.28125 L 3.59375 -21.21875 L 3.546875 -22.296875 L 3.703125 -24.125 L 3.59375 -25.109375 L 3.703125 -26.046875 L 3.703125 -32.953125 L 4.140625 -34.03125 L 5.171875 -34.4375 L 6.109375 -34.578125 L 8.09375 -34.375 L 9.078125 -34.578125 L 11 -34.578125 L 11.984375 -33.984375 L 12.484375 -32.90625 L 12.4375 -31.96875 L 12.578125 -29.15625 L 12.484375 -27.1875 L 12.578125 -26 L 12.53125 -9.28125 L 12.921875 -8.28125 L 13.90625 -7.890625 L 14.953125 -7.984375 L 16.875 -7.890625 L 17.765625 -8.046875 L 18.75 -7.84375 L 20.765625 -7.890625 L 21.796875 -7.75 L 22.734375 -7.9375 L 23.78125 -8.046875 L 24.65625 -7.453125 L 25.109375 -5.96875 L 25.15625 -1.96875 L 24.609375 -0.4375 L 23.671875 0.046875 L 13.90625 0 L 12.828125 0.09375 L 11.890625 -0.046875 L 10.015625 0.046875 L 8.09375 -0.046875 L 6.015625 0.09375 L 5.03125 0 L 4.09375 -0.5 Z M 3.75 -1.78125"/></g></g></g><g fill-opacity="1" fill="#FFFFFF"><g transform="translate(259.046353, 204.535641)"><g><path d="M 6.609375 0.140625 L 5.71875 0.09375 L 4.1875 -0.390625 L 3.65625 -1.328125 L 3.703125 -10.453125 L 3.59375 -11.390625 L 3.65625 -24.171875 L 3.546875 -25.109375 L 3.75 -27.078125 L 3.703125 -33.046875 L 4.140625 -33.84375 L 5.171875 -34.375 L 6.21875 -34.578125 L 7.109375 -34.4375 L 8.1875 -34.375 L 11.25 -34.578125 L 12.234375 -34.4375 L 15.25 -34.375 L 16.328125 -34.53125 L 17.90625 -34.578125 L 19.390625 -34.53125 L 20.375 -34.1875 L 21.359375 -34.1875 L 22.203125 -33.84375 L 24.171875 -33.25 L 25.796875 -32.15625 L 28.015625 -30.234375 L 29.203125 -28.609375 L 30.140625 -26.9375 L 30.734375 -25.109375 L 30.875 -24.015625 L 31.078125 -23.1875 L 30.984375 -19.140625 L 30.6875 -18.34375 L 30.53125 -17.265625 L 29.703125 -15.34375 L 28.65625 -13.765625 L 28.015625 -13.015625 L 27.375 -12.375 L 26.6875 -11.59375 L 25.953125 -11 L 21.265625 -9.125 L 16.171875 -8.734375 L 15.140625 -8.921875 L 14.0625 -8.828125 L 12.921875 -8.28125 L 12.484375 -7.40625 L 12.53125 -6.265625 L 12.4375 -5.328125 L 12.53125 -3.5 L 12.484375 -2.421875 L 12.53125 -1.4375 L 12.078125 -0.390625 L 11.046875 0 L 9.921875 0.09375 L 9.03125 0.046875 Z M 14.015625 -16.71875 L 15.1875 -16.828125 L 17.703125 -16.765625 L 19.234375 -16.96875 L 20.03125 -17.21875 L 20.8125 -17.8125 L 21.453125 -18.59375 L 21.90625 -19.390625 L 22.25 -20.28125 L 22.34375 -21.609375 L 22.25 -22.984375 L 22.09375 -23.875 L 21.609375 -24.859375 L 20.96875 -25.5 L 20.171875 -26.046875 L 19.1875 -26.484375 L 14.0625 -26.640625 L 13.015625 -26.140625 L 12.53125 -25.203125 L 12.53125 -23.1875 L 12.4375 -22.140625 L 12.578125 -18.15625 L 13.015625 -17.3125 Z M 14.015625 -16.71875"/></g></g></g><g fill-opacity="1" fill="#FFFFFF"><g transform="translate(291.502249, 204.535641)"><g><path d="M 16.53125 0.203125 L 15.53125 -0.046875 L 13.125 -0.046875 L 11.640625 0.140625 L 9.671875 -0.046875 L 8.6875 0.046875 L 7.15625 0.09375 L 5.71875 -0.09375 L 4.78125 0 L 3.84375 0 L 2.859375 -0.4375 L 2.375 -1.78125 L 2.515625 -6.3125 L 3.0625 -7.203125 L 6.3125 -8.1875 L 6.859375 -9.671875 L 6.703125 -24.8125 L 6.265625 -26.140625 L 5.328125 -26.734375 L 4.34375 -26.734375 L 3.25 -27.28125 L 2.71875 -28.265625 L 2.8125 -29.203125 L 2.65625 -32.859375 L 3.15625 -34.03125 L 4.140625 -34.53125 L 5.28125 -34.53125 L 6.21875 -34.375 L 10.265625 -34.375 L 11.25 -34.578125 L 12.140625 -34.484375 L 18.109375 -34.484375 L 18.984375 -33.9375 L 19.578125 -33 L 19.53125 -28.109375 L 19.046875 -27.328125 L 18 -26.9375 L 17.015625 -26.78125 L 15.9375 -26.34375 L 15.59375 -25.203125 L 15.390625 -20.21875 L 15.59375 -16.671875 L 15.484375 -15.59375 L 15.53125 -10.15625 L 15.390625 -9.21875 L 15.984375 -8.09375 L 17.171875 -7.6875 L 18.203125 -7.6875 L 19.28125 -7.15625 L 19.875 -6.21875 L 19.875 -1.328125 L 19.390625 -0.390625 L 18.5 0.09375 Z M 16.53125 0.203125"/></g></g></g><g fill-opacity="1" fill="#FFFFFF"><g transform="translate(313.895835, 204.535641)"><g><path d="M 0.640625 -1.234375 L 1.078125 -2.375 L 1.578125 -3.3125 L 2.125 -4 L 2.609375 -4.9375 L 3.703125 -6.40625 L 5.28125 -9.03125 L 5.875 -9.765625 L 6.859375 -11.546875 L 7.5 -12.1875 L 7.984375 -13.078125 L 8.484375 -13.65625 L 9.46875 -15.4375 L 10.609375 -17.0625 L 10.796875 -18.15625 L 10.5 -19.484375 L 10.0625 -20.21875 L 9.375 -21.109375 L 8.390625 -22.796875 L 7.796875 -23.53125 L 7.25 -24.46875 L 6.65625 -25.203125 L 5.625 -26.984375 L 4.25 -28.90625 L 3.453125 -30.34375 L 2.21875 -31.96875 L 1.71875 -33.046875 L 1.828125 -34.140625 L 2.953125 -34.4375 L 4.4375 -34.375 L 5.96875 -34.578125 L 7.109375 -34.4375 L 8.09375 -34.4375 L 9.171875 -34.578125 L 10.359375 -34.03125 L 11.390625 -33.203125 L 13.90625 -29.15625 L 14.25 -28.265625 L 14.796875 -27.625 L 15.296875 -26.640625 L 15.78125 -25.84375 L 16.46875 -26 L 18.703125 -29.109375 L 19.046875 -30.09375 L 20.671875 -32.359375 L 21.0625 -33.296875 L 22.203125 -34.03125 L 23.375 -34.484375 L 24.3125 -34.578125 L 27.875 -34.4375 L 29.453125 -34.53125 L 30.53125 -34.1875 L 30.78125 -33.15625 L 27.921875 -28.703125 L 27.46875 -27.828125 L 23.96875 -22.84375 L 23.484375 -21.90625 L 22.5 -20.375 L 21.796875 -19.484375 L 21.5625 -18.296875 L 21.859375 -17.0625 L 22.4375 -16.328125 L 24.71875 -12.53125 L 26.1875 -10.609375 L 27.125 -8.875 L 27.765625 -7.984375 L 28.109375 -7.34375 L 29.84375 -4.984375 L 30.28125 -4.140625 L 31.375 -2.5625 L 31.96875 -1.328125 L 31.8125 -0.203125 L 30.828125 0.046875 L 29.84375 -0.09375 L 24.171875 0.203125 L 22.984375 -0.34375 L 22.046875 -1.28125 L 17.109375 -9.5625 L 16.53125 -10.3125 L 15.9375 -10.359375 L 15.390625 -9.625 L 14.453125 -7.75 L 13.8125 -7.109375 L 13.375 -6.171875 L 11.9375 -3.75 L 11.5 -2.765625 L 10.953125 -2.015625 L 10.5625 -1.234375 L 9.46875 -0.4375 L 8.34375 -0.09375 L 6.859375 0.046875 L 1.671875 0.09375 L 0.796875 -0.25 Z M 0.640625 -1.234375"/></g></g></g></svg>